<?xml version="1.0" encoding="UTF-8" standalone="no"?>
<svg
   xmlns:dc="http://purl.org/dc/elements/1.1/"
   xmlns:cc="http://creativecommons.org/ns#"
   xmlns:rdf="http://www.w3.org/1999/02/22-rdf-syntax-ns#"
   xmlns:svg="http://www.w3.org/2000/svg"
   xmlns="http://www.w3.org/2000/svg"
   xmlns:sodipodi="http://sodipodi.sourceforge.net/DTD/sodipodi-0.dtd"
   xmlns:inkscape="http://www.inkscape.org/namespaces/inkscape"
   version="1.1"
   id="Layer_1"
   width="1000"
   height="242.071"
   viewBox="0 0 1000 242.071"
   xml:space="preserve">
<g
   id="g3"
   transform="matrix(1.8260962,0,0,1.8260962,-1191.1498,-188.83843)">
	<g
   id="g5">
		<path
   d="m 692.4789,218.08553 c 7.94799,-6.77198 15.08865,-14.86723 19.65169,-24.36304 2.79694,-5.96151 5.00588,-12.1434 6.10982,-18.6219 1.54468,-9.34645 2.13374,-18.84226 2.64967,-28.33703 0.29349,-6.54951 0.44075,-13.10113 0.44075,-19.72479 v -23.62673 h -10.08172 c 0,3.90089 0,7.80282 0,11.70266 -0.29453,11.55643 -0.95774,23.11182 -2.72383,34.51996 -1.39847,8.97987 -3.38495,17.95869 -7.13858,26.20224 -3.24081,7.21273 -7.43413,14.05885 -12.73349,19.87311 -5.15313,5.74114 -11.26086,10.5256 -18.03388,14.13196 -5.74011,3.01731 -11.92303,5.29831 -18.32633,6.25604 v 19.79894 c 5.29936,-0.7363 10.5256,-2.06063 15.60353,-3.82777 8.83052,-3.08937 17.44277,-7.65346 24.58237,-13.98365 z"
   id="path7" />
		<path
   d="m 725.23171,193.72249 c 0,14.05885 -0.0721,28.19081 0.0742,42.24862 6.10876,-0.0742 12.2917,0 18.47358,0 V 103.48516 c -6.18293,0 -12.36586,0 -18.54879,0 0.001,30.03002 0.001,60.1342 0.001,90.23733 z"
   id="path9" />
		<path
   d="m 808.91848,214.25775 c -9.27334,-3.01731 -17.81142,-8.0963 -24.87793,-14.86828 -7.35998,-6.99234 -13.02697,-15.75079 -16.92785,-25.09829 -4.12126,-9.71619 -5.96151,-20.16763 -7.28688,-30.54597 -1.61987,-13.39565 -2.06167,-26.86441 -1.98647,-40.33421 h -10.0107 v 21.71336 c -0.0742,12.8066 0.36868,25.61319 1.47262,38.34669 0.588,5.8884 1.2512,11.84992 2.79694,17.59106 1.54469,5.74114 3.82673,11.26191 6.77093,16.48815 3.75363,6.62367 8.7595,12.51208 14.35129,17.73833 3.38703,3.09041 6.91924,6.10877 10.81908,8.61118 5.3004,3.46014 11.1157,6.18294 17.15032,8.24357 5.07793,1.69298 10.23212,3.09146 15.53042,3.75361 0,-6.62366 0,-13.17422 0,-19.79894 -2.57552,-0.36764 -5.2252,-1.02979 -7.80177,-1.84026 z"
   id="path11" />
		<path
   d="m 991.18433,125.51601 v -19.9389 h -73.58417 v 19.9389 c 9.02061,0 18.04017,0 27.05972,0 v 110.29635 h 19.46473 V 125.51601 c 9.01957,0 18.04017,0 27.05972,0 z"
   id="path13" />
		<path
   d="m 1138.6681,181.85168 c 3.7985,-2.84812 8.2289,-4.74685 11.7099,-7.91247 6.8054,-5.85394 10.4442,-14.55809 11.0771,-23.26118 0.6319,-8.7031 0.6319,-17.24849 -3.3234,-24.84452 -5.6972,-11.70996 -18.0402,-19.78014 -31.1747,-20.0966 h -23.2612 c -2.0575,0 -3.955,0.15874 -5.8538,0.79166 -6.3303,2.0575 -11.0771,8.38665 -11.0771,15.0333 0,38.1378 0,76.27351 0,114.41134 h 19.6224 c 0,-35.44637 0,-70.89376 0,-106.34012 0.1577,-2.37395 2.0575,-4.2727 4.4305,-4.2727 h 15.0343 c 7.2795,-0.3175 14.0828,5.37978 15.6661,12.34288 1.2659,5.37978 1.4236,11.55227 -1.4246,16.45683 -3.7973,6.64665 -10.7605,10.76164 -17.7236,13.45101 -3.6387,1.42353 -6.9621,4.11394 -8.3867,7.91247 -1.74,5.06437 -0.9493,10.60184 2.0575,14.87454 9.9701,15.03434 19.9389,30.22429 30.0666,45.41633 h 23.1035 c -10.4441,-15.6662 -21.2047,-31.33241 -31.4901,-47.15632 -1.2679,-2.21729 -1.1092,-5.22416 0.9473,-6.80645 z"
   id="path15" />
		
		<path
   d="m 1030.588,105.89461 c -6.1714,-1.58332 -12.6603,0.79062 -16.459,6.01269 -2.2151,3.00687 -2.6893,6.80435 -3.7974,10.12663 -11.07711,37.97906 -21.99643,75.95918 -33.07349,113.77843 h 20.25639 c 3.1646,-10.91934 6.3302,-21.83765 9.4948,-32.75699 13.1334,0 26.268,0 39.4026,0 3.1656,10.91934 6.3302,21.83765 9.4958,32.75699 6.8044,0 13.6087,0 20.4131,0 -11.5523,-39.56134 -22.9448,-79.12269 -34.4971,-118.68403 -1.4246,-5.22103 -5.6972,-9.96892 -11.2357,-11.23372 z m -18.0402,78.64748 c 4.7479,-16.45786 9.4947,-32.91573 14.2427,-49.37256 4.7468,16.45787 9.4948,32.91574 14.2427,49.37256 z"
   id="path19" />
		<path
   d="m 892.91441,108.90044 c -6.1704,-5.37978 -16.61454,-4.2727 -21.83661,2.2152 -2.84916,3.16458 -3.32332,7.59497 -4.59019,11.5533 -11.07601,37.81926 -21.9964,75.48083 -32.9147,113.30217 h 20.25536 c 3.16458,-10.91935 6.3302,-21.83764 9.65247,-32.757 h 39.40364 c 3.16457,10.91936 6.33019,21.83765 9.49476,32.757 h 20.41411 c -11.55226,-39.56134 -23.10452,-79.12269 -34.65677,-118.68403 -0.79062,-3.32228 -2.69042,-6.1704 -5.22207,-8.38664 z m -24.05285,75.64165 c 4.74687,-16.45786 9.49373,-32.91573 14.39933,-49.21382 4.74791,16.45684 9.4958,32.9147 14.24267,49.21382 -9.65247,0 -19.14827,0.15666 -28.642,0 z"
   id="path21" />
		<path
   d="m 1179.3375,105.73587 v 130.23524 h 20.5718 c 0,-43.35987 0,-86.71766 0,-130.23524 z"
   id="path25" />
	</g>
</g>
</svg>
