<?xml version="1.0" encoding="UTF-8" standalone="no"?>
<svg
   xmlns:dc="http://purl.org/dc/elements/1.1/"
   xmlns:cc="http://creativecommons.org/ns#"
   xmlns:rdf="http://www.w3.org/1999/02/22-rdf-syntax-ns#"
   xmlns:svg="http://www.w3.org/2000/svg"
   xmlns="http://www.w3.org/2000/svg"
   xmlns:sodipodi="http://sodipodi.sourceforge.net/DTD/sodipodi-0.dtd"
   xmlns:inkscape="http://www.inkscape.org/namespaces/inkscape"
   width="307.81036mm"
   height="338.66666mm"
   viewBox="0 0 307.81036 338.66666"
   version="1.1"
   id="svg8"
   inkscape:version="1.0.1 (3bc2e813f5, 2020-09-07)"
   sodipodi:docname="Atari_(2012).svg">
  <defs
     id="defs2" />
  <sodipodi:namedview
     id="base"
     pagecolor="#ffffff"
     bordercolor="#666666"
     borderopacity="1.0"
     inkscape:pageopacity="0.0"
     inkscape:pageshadow="2"
     inkscape:zoom="0.40234375"
     inkscape:cx="581.68889"
     inkscape:cy="640.00001"
     inkscape:document-units="mm"
     inkscape:current-layer="g890"
     inkscape:document-rotation="0"
     showgrid="false"
     showguides="true"
     inkscape:guide-bbox="true"
     inkscape:window-width="1366"
     inkscape:window-height="705"
     inkscape:window-x="-8"
     inkscape:window-y="-8"
     inkscape:window-maximized="1" />
  <metadata
     id="metadata5">
    <rdf:RDF>
      <cc:Work
         rdf:about="">
        <dc:format>image/svg+xml</dc:format>
        <dc:type
           rdf:resource="http://purl.org/dc/dcmitype/StillImage" />
        <dc:title></dc:title>
      </cc:Work>
    </rdf:RDF>
  </metadata>
  <g
     inkscape:label="Layer 1"
     inkscape:groupmode="layer"
     id="layer1"
     transform="translate(61.131346,-22.678575)">
    <g
       id="g890"
       transform="matrix(0.35277777,0,0,0.35277777,-61.131346,22.678575)">
      <g
         id="g948"
         transform="scale(1.0666667)">
        <path
           fill="#e41b23"
           opacity="1"
           d="M 23.42,0 H 794.56 C 806.62702,0 818,11.371926 818,23.44 V 876.59 C 818,888.63925 806.66147,900 794.62,900 H 23.42 C 11.351926,900 0,888.61482 0,876.53 V 23.43 C 0,11.37187 11.43,1.29 23.42,0"
           id="path854"
           sodipodi:nodetypes="csssssssc" />
        <path
           fill="#ffffff"
           opacity="1"
           d="m 319.75,68.52 c 12.41,-0.04 24.82,0 37.23,-0.03 0.05,29.18 0,58.36 0.02,87.54 0.13,24.36 -0.56,48.71 -1.57,73.04 -1.66,35.13 -3.86,70.34 -9.68,105.07 -4,23.95 -12.28,47.04 -22.56,68.97 -16.76,35.33 -43.1,65.23 -72.71,90.38 -26.49,23.31 -58.11,40.28 -91.36,51.77 -18.81,6.48 -38.17,11.47 -57.88,14.25 0.02,-24.47 0.02,-48.95 0,-73.42 23.73,-3.57 46.54,-11.99 67.73,-23.12 25.14,-13.29 47.77,-31.17 66.82,-52.25 19.67,-21.76 35.35,-46.95 47.25,-73.71 14.01,-30.76 21.51,-63.98 26.61,-97.25 6.39,-42.29 9.05,-85.06 10.04,-127.8 0.14,-14.48 0.02,-28.96 0.06,-43.44 z"
           id="path833" />
        <path
           fill="#ffffff"
           opacity="1"
           d="m 371.96,68.56 c 22.84,-0.15 45.69,-0.02 68.54,-0.06 0.01,163.67 0.01,327.34 0,491 -22.79,0.05 -45.59,-0.11 -68.38,0.09 C 371.83,507.4 372.08,455.2 372,403.01 371.97,291.53 372.04,180.05 371.96,68.56 Z"
           id="path835" />
        <path
           fill="#ffffff"
           opacity="1"
           d="m 455.75,68.51 c 12.34,-0.01 24.68,-0.03 37.01,0.01 -0.4,49.9 1.3,99.89 7.25,149.47 4.87,38.51 11.73,77.3 27.07,113.18 14.54,34.71 35.5,66.97 62.81,92.98 26.08,24.87 57.69,43.99 92.03,54.99 9.58,3.06 19.38,5.47 29.34,6.92 -0.01,24.46 -0.02,48.92 0,73.38 -19.57,-2.66 -38.76,-7.7 -57.44,-14.05 -22.24,-7.74 -43.75,-17.76 -63.51,-30.61 -14.42,-9.27 -27.54,-20.37 -40.14,-31.96 -20.77,-19.15 -39.36,-40.92 -53.32,-65.57 -10.92,-19.19 -18.89,-39.93 -25.13,-61.08 -5.72,-21.26 -8.16,-43.23 -10.38,-65.09 -4.29,-47.23 -5.9,-94.69 -5.59,-142.1 0,-26.82 -0.01,-53.65 0,-80.47 z"
           id="path837" />
        <path
           id="path841"
           style="fill:#ffffff;stroke-width:1.33333"
           d="m 319.5918,882.08594 c -11.54741,-0.19932 -23.00162,5.4882 -29.77344,14.96094 -4.94554,6.91806 -6.47113,15.37509 -8.78516,23.36132 l -75.81445,261.6655 h 46.50781 l 21.82617,-75.3339 90.35938,-0.025 21.77344,75.3589 h 46.86718 L 353.21875,909.30118 c -3.55812,-12.23381 -13.05583,-23.14651 -25.70703,-26.13281 -2.61148,-0.61644 -5.25514,-1.03604 -7.91992,-1.08203 z m -0.79883,68.57422 32.73242,113.38674 -65.50586,-0.012 z"
           transform="matrix(0.75000002,0,0,0.75000002,173.28571,-64.285726)"
           sodipodi:nodetypes="cssccccccsssccccc" />
        <path
           fill="#ffffff"
           opacity="1"
           d="M 224,597.75 H 351 V 632 l -46.75,-3.6e-4 -0.0144,190.26993 -33.4856,-0.004 0.01,-190.2662 L 224,632 Z"
           id="path843"
           sodipodi:nodetypes="ccccccccc"
           style="fill:#ffffff" />
        <path
           id="path845"
           style="fill:#ffffff;stroke-width:1.33333"
           d="m 495.57812,882.71545 c -4.53458,10e-5 -9.08054,0.44616 -13.39843,1.85291 -14.54959,4.74019 -25.58594,19.11824 -25.58594,34.47852 v 263.02682 h 45.03906 V 937.76758 c 0,-5.28043 4.83802,-9.69338 10.05274,-9.69336 l 34.58593,1.1e-4 c 16.6894,5e-5 32.30634,12.17034 36.04102,28.33391 2.89241,12.51828 3.36575,26.52488 -3.37305,37.94532 -8.94125,15.15294 -24.77133,24.78384 -40.83984,30.94724 -8.43824,3.2366 -16.01175,9.5914 -19.14649,18.2539 -4.07862,11.2709 -2.056,24.2662 4.54688,34.2519 l 68.94531,104.2676 52.91992,-5e-4 -72.30664,-108.5461 c -3.13402,-4.7048 -2.26973,-12.2266 2.56055,-15.8398 8.71664,-6.5203 18.84411,-10.9804 27.09375,-18.1738 15.39107,-13.4205 23.51272,-33.4867 25.4668,-53.57225 1.87334,-19.25567 1.07404,-39.45056 -7.64063,-57.10743 -13.24705,-26.83996 -41.58223,-46.12071 -71.56054,-46.12005 z"
           transform="matrix(0.75000002,0,0,0.75000002,173.28571,-64.285726)"
           sodipodi:nodetypes="sssccssssssssccsssssss" />
        <path
           fill="#ffffff"
           opacity="1"
           d="m 675,597.74999 h 35.5 l -7.4e-4,224.51958 H 675.001 Z"
           id="path847"
           style="fill:#ffffff"
           sodipodi:nodetypes="ccccc" />
        <path
           id="path932"
           style="fill:#ffffff;stroke-width:0.999998"
           d="m 165.25857,597.27875 c -8.66056,-0.14949 -17.25122,4.11615 -22.33008,11.2207 -3.70916,5.18855 -4.85335,11.53132 -6.58887,17.52099 L 79.478778,822.26957 h 34.880862 l 16.36962,-56.50012 67.76954,-0.019 16.33008,56.51912 h 35.15039 L 190.47878,617.68993 c -2.66859,-9.17536 -9.79187,-17.35989 -19.28027,-19.59961 -1.95861,-0.46233 -3.94136,-0.77703 -5.93994,-0.81152 z m -0.59912,51.43066 24.54931,85.04006 -49.1294,-0.009 z"
           sodipodi:nodetypes="sssccccccsssscccc" />
      </g>
    </g>
  </g>
</svg>
