<?xml version="1.0" encoding="utf-8"?>
<!-- Generator: Adobe Adobe Illustrator 24.2.0, SVG Export Plug-In . SVG Version: 6.00 Build 0)  -->
<svg version="1.1" id="Layer_1" xmlns="http://www.w3.org/2000/svg" xmlns:xlink="http://www.w3.org/1999/xlink" x="0px" y="0px"
	 width="1109.78px" height="332.67px" viewBox="0 0 1109.78 332.67" style="enable-background:new 0 0 1109.78 332.67;"
	 xml:space="preserve">
<style type="text/css">
	.st0{fill:#F3021C;}
</style>
<g>
	<polygon class="st0" points="432.13,2.46 432.13,57.46 358.63,57.46 358.63,332.67 303.63,332.67 303.63,57.46 230.13,57.46 
		230.13,2.46 	"/>
	<rect x="920.97" y="2.46" class="st0" width="55" height="330.21"/>
	<path class="st0" d="M491.14,30.66l-87.68,302.01h56l23.57-81.21h96.67l24.49,81.21h56.65L570.38,30.33
		C558.57-9.12,502.62-8.89,491.14,30.66z M497.54,201.46l32.9-113.34l34.18,113.34H497.54z"/>
	<path class="st0" d="M889.11,332.67h-60.33l-72.19-114.25c-16.21-25.65-2-59.61,27.65-66.07c0.22-0.04,0.35-0.07,0.36-0.08
		c22.21-5.3,37.95-25.16,37.95-48.08c0-12.63-5.12-24.06-13.39-32.34c-8.28-8.27-19.71-13.39-32.34-13.39h-40.85v274.21h-55V50.79
		c0-26.69,21.64-48.33,48.33-48.33h50.35c55.43,0,100.37,44.94,100.37,100.37c0,18.19-5.61,36.69-15.6,52.71
		c-10,16.02-24.38,29.54-41.94,37.76l-8.53,4c-4.25,1.99-5.79,7.26-3.28,11.23L889.11,332.67z"/>
	<path class="st0" d="M232.52,251.46l-14.75-50L166.86,28.88c-11.35-38.5-65.89-38.5-77.24,0L38.71,201.46l-14.75,50L0,332.67h54.96
		l23.95-81.21h98.66l23.95,81.21h54.96L232.52,251.46z M93.67,201.46l34.57-117.2l34.57,117.2H93.67z"/>
</g>
<g>
	<path class="st0" d="M1028.81,149.32c0-18.26,15.02-33.11,33.48-33.11s33.48,14.85,33.48,33.11c0,18.26-15.02,33.11-33.48,33.11
		S1028.81,167.58,1028.81,149.32 M1014.81,149.32c0,26.02,21.26,47.11,47.48,47.11s47.48-21.09,47.48-47.11
		c0-26.02-21.26-47.11-47.48-47.11S1014.81,123.31,1014.81,149.32L1014.81,149.32z"/>
	<path class="st0" d="M1028.81,49.01c0-18.26,15.02-33.11,33.48-33.11s33.48,14.85,33.48,33.11c0,18.26-15.02,33.11-33.48,33.11
		S1028.81,67.27,1028.81,49.01 M1014.81,49.01c0,26.02,21.26,47.11,47.48,47.11s47.48-21.09,47.48-47.11
		c0-26.02-21.26-47.11-47.48-47.11S1014.81,22.99,1014.81,49.01L1014.81,49.01z"/>
	<path class="st0" d="M1093.61,310.61v-37.38h14v57.94h-13.24l-39.98-39.98c-2.54-2.54-5.97-3.96-9.56-3.96
		c-4.34,0-8.27,1.76-11.11,4.6c-2.85,2.85-4.61,6.78-4.61,11.12c0,4.34,1.76,8.27,4.61,11.11c2.84,2.85,6.77,4.61,11.11,4.61h2.28
		v14h-2.28c-16.41,0-29.72-13.31-29.72-29.72c0-8.21,3.33-15.64,8.71-21.01c5.38-5.38,12.81-8.71,21.01-8.71
		c7.3,0,14.3,2.9,19.46,8.06L1093.61,310.61z"/>
	<path class="st0" d="M1047.89,237.78c-0.03,0-31.92-19.47-31.92-19.47v16.54l41.67,25.91c5.84,3.64,12.54,5.73,19.42,5.9
		c0.2,0.01,0.38,0.01,0.56,0.01h0.12c17.6,0,31.87-14.27,31.87-31.87v-0.77c0-16.49-14.67-30.52-31.15-30.52
		C1060.72,203.51,1042.8,215.58,1047.89,237.78z M1096.41,235.21c0,10.22-8.28,18.5-18.5,18.5c-10.21,0-18.5-8.28-18.5-18.5
		c0-10.21,8.29-18.5,18.5-18.5C1088.13,216.71,1096.41,225,1096.41,235.21z"/>
</g>
</svg>
