<?xml version="1.0" encoding="UTF-8" standalone="no"?>
<!DOCTYPE svg PUBLIC "-//W3C//DTD SVG 1.1//EN" "http://www.w3.org/Graphics/SVG/1.1/DTD/svg11.dtd">
<svg width="100%" height="100%" viewBox="0 0 614 545" version="1.1" xmlns="http://www.w3.org/2000/svg" xmlns:xlink="http://www.w3.org/1999/xlink" xml:space="preserve" xmlns:serif="http://www.serif.com/" style="fill-rule:evenodd;clip-rule:evenodd;stroke-linejoin:round;stroke-miterlimit:2;">
    <g transform="matrix(1,0,0,1,-217.44824,-0.000295)">
        <path id="path23" d="M591.027,7.415C613.831,10.839 637.121,18.802 649.265,22.517C673.733,29.996 713.454,53.242 727.48,64.392C734.115,69.664 748.069,83.472 753.471,90.422C758.734,97.192 768.788,111.859 775.204,120.894C785.413,135.808 797.436,158.021 807.636,178.463C819.028,201.302 819.809,207.917 823.253,227.011L830.785,260.67C831.493,266.49 832.08,287.84 819.547,290.832C807.02,293.825 795.438,288.043 789.977,279.595C782.421,267.901 783.464,251.305 774.918,232.308C768.254,216.953 765.339,194.638 754.698,178.589L746.352,164.476C731.583,141.739 716.19,123.693 707.009,111.922C698.924,102.033 683.826,88.589 669.514,79.024C656.278,70.998 634.88,61.846 619.447,57.132C614.53,55.531 593.481,49.343 580.4,47.601C562.649,45.608 550.971,42.8 534.103,41.612C513.277,40.142 503.286,38.29 476.272,41.447C466.038,44.221 449.825,45.322 435.231,50.904C423.446,55.711 407.053,63.475 390.995,72.909C373.714,82.385 347.481,101.766 330.084,118.314C312.551,137.049 303.782,147.103 291.692,170.854C286.337,182.605 275.982,200.783 271.807,213.616C268.955,226.643 263.513,250.941 264.43,262.741C264.842,283.882 262.994,288.237 264.58,305.518C264.638,321.077 269.745,331.863 271.87,344.589C273.688,353.382 282.123,383.806 287.341,390.868C311.062,441.976 342.902,464.112 378.385,480.078C388.385,485.17 419.682,493.546 428.737,495.947C444.174,498.731 464.491,500.588 484.046,500.967C504.62,501.369 532.977,498.58 550.185,492.246C568.809,485.398 590.343,475.664 590.095,475.936C598.738,471.173 611.925,463.399 616.033,459.98C623.972,454.892 628.754,452.923 633.459,448.024C640.244,442.088 644.352,438.669 649.493,431.311C652.354,427.165 656.899,420.816 661.327,415.205C666.09,407.401 668.825,399.176 673.476,389C679.039,373.951 678.176,374.673 679.233,358.688C680.232,354.056 679.126,338.488 678.287,335.845C675.78,321.479 676.667,308.806 673.379,294.858C668.936,275.986 665.246,261.863 659.576,243.758C654.246,223.374 638.59,204.488 626.839,191C619.559,182.639 596.973,162.89 565.637,150.557C556.815,147.588 542.372,144.222 533.2,142.549C513.621,140.503 510.435,141.817 491.69,143.189C485.239,144.315 470.262,147.375 464.758,149.31C448.656,154.965 442.734,158.559 426.273,168.642C418.61,173.089 412.834,176.494 405.001,183.837C398.75,189.623 394.283,199.459 389.219,205.225C382.284,214.663 374.563,227.254 369.383,240.834C363.767,254.341 361.958,273.358 362.811,285.594C362.811,294.921 365.348,311.993 366.357,315.727C367.361,319.466 369.883,331.058 370.431,333.386C370.979,335.709 377.007,347.974 377.837,349.749C381.236,356.986 387.745,367.384 398.711,378.001C406.801,386.837 422.442,395.509 434.15,398.87C444.65,404.632 462.357,405.611 472.154,405.631C476.975,405.34 489.289,404.583 495.715,403.041C508.747,399.913 511.152,399.83 524.582,393.996C536.634,388.409 544.811,386.396 553.207,380.193C553.207,380.193 564.73,371.162 569.968,364.556C572.733,361.069 577.471,344.453 576.627,334.162C576.234,320.073 578.286,312.08 575.41,300.488C572.534,288.897 567.626,275.463 562.305,267.184C556.917,258.798 545.33,250.626 532.143,244.122C524.761,240.475 507.268,237.094 499.847,236.217C485.748,234.543 473.958,240.941 466.8,248.259C460.592,255.355 448.321,270.094 453.21,285.332C457.633,299.121 462.973,313.811 483.653,312.72C497.844,315.674 514.261,311.386 519.727,313.903C527.841,318.511 530.96,328.686 528.011,335.782C525.955,349.463 512.85,351.103 498.863,352.145C486.35,354.241 454.568,348.115 447.584,342.882C442.899,340.098 435.726,333.41 430.672,328.895C427.04,325.645 422.927,318.399 420.119,313.195C416.67,306.803 414.929,302.099 414.042,297.932C412.989,292.986 410.821,283.543 411.641,274.1C412.194,267.732 413.901,265.021 415.598,255.709C418.979,245.15 423.179,237.114 429.935,227.957C438.738,219.024 449.917,208.388 460.829,203.445C470.452,198.363 487.31,196.491 502.563,197.383C514.935,198.566 529.573,200.075 539.248,203.319C555.811,209.236 560.545,210.415 574.139,218.99C585.629,226.1 597.186,239.18 603.636,250.015C617.357,278.091 625.229,309.325 619.506,351.369C619.035,358.475 616.824,365.415 612.396,374.819C608.307,383.5 601.134,394.059 590.372,402.008C586.036,406.019 579.202,410.956 573.639,413.847C565.744,418.638 560.433,421.131 552.188,425.273C544.952,428.673 536.518,432.563 525.518,435.618C513.597,440.332 504.45,440.526 489.459,442.762C474.7,446.463 434.324,443.819 410.273,433.213C393.856,426.311 375.436,414.143 361.434,399.311C353.655,391.159 346.045,376.366 343.809,373.34C332.674,351.932 330.491,331.795 328.706,327.566C326.281,321.819 325.074,308.932 323.449,300.115C321.616,290.231 322.751,248.778 332.732,222.171C338.358,211.579 341.651,202.136 345.458,197.174C352.302,187.441 355.609,181.359 361.429,174.457C370.203,163.816 376.59,155.135 385.136,149.014C406.912,131.307 425.104,121.966 449.708,110.278C480.282,97.828 489.463,100.403 518.398,100.864C531.416,100.975 550.36,105.069 559.672,106.766C576.967,109.07 586.875,113.236 598.573,116.5C611.081,119.992 618.312,125.565 628.575,131.768C637.024,137.224 646.966,144.698 653.533,150.765C670.333,163.084 678.438,176.033 688.734,191.936C690.601,194.604 702.828,220.663 704.778,227.918C705.68,231.551 708.449,241.983 710.224,248.08C712.509,257.75 713.614,266.316 716.161,277.228C718.44,288.47 722.32,309.698 724.003,329.54C726.83,346.558 722.301,381.299 719.628,391.964C713.677,411.848 703.269,436.118 682.715,459.49C673.985,469.84 664.702,477.861 653.979,486.567C645.778,493.41 638.741,497.392 626.072,504.958C608.865,515.226 595.77,521.783 571.651,531.211C561.83,534.363 549.458,538.51 536.12,541.27C510.284,543.656 483.736,545.945 454.757,542.502C425.774,539.053 396.742,530.886 379.592,525.619C370.13,522.069 351.797,514.382 344.11,510.245C339.11,507.703 322.343,496.238 319.496,493.478C308.007,486.368 282.292,462.186 265.691,439.644C262.053,432.679 248.973,411.781 246.136,402.624C238.594,387.138 233.337,368.407 230.247,360.405C226.988,341.728 221.483,329.7 219.335,310.95C219.582,306.536 218.447,296.153 217.448,290.405C218.908,277.572 216.958,265.476 219.505,251.509C221.74,239.718 224.704,234.796 225.407,224.14C226.096,219.581 231.964,205.87 233.526,199.769C238.259,189.72 239.438,181.441 245.617,170.213C254.521,152.715 263.828,132.583 278.131,114.997C282.215,109.545 293.796,96.465 297.744,91.93C307.076,82.604 312.551,81.129 323.134,71.769C324.235,71.075 331.224,63.107 338.542,60.367C350.672,50.996 361.153,47.558 372.696,39.036C395.83,27.513 404.264,23.623 427.229,14.069C440.498,9.335 459.006,6.716 465.67,4.131C478.347,3.346 491.214,-0.699 504.552,0.106C519.524,-0.035 534.612,1.032 549.656,2.4C559.836,3.025 573.072,3.52 591.027,7.415Z" style="fill:rgb(237,132,50);fill-rule:nonzero;"/>
    </g>
</svg>
