<?xml version="1.0" encoding="UTF-8" standalone="no"?>
<!-- Generator: Adobe Illustrator 26.0.3, SVG Export Plug-In . SVG Version: 6.00 Build 0)  -->

<svg
   version="1.1"
   id="Layer_1"
   x="0px"
   y="0px"
   viewBox="0 0 3839 647.3"
   style="enable-background:new 0 0 3839 647.3;"
   xml:space="preserve"
   sodipodi:docname="Nintendo_Game_Boy_packaging.svg"
   inkscape:version="1.2.1 (9c6d41e4, 2022-07-14)"
   xmlns:inkscape="http://www.inkscape.org/namespaces/inkscape"
   xmlns:sodipodi="http://sodipodi.sourceforge.net/DTD/sodipodi-0.dtd"
   xmlns="http://www.w3.org/2000/svg"
   xmlns:svg="http://www.w3.org/2000/svg"><defs
   id="defs3933">
					
					
				
		
	</defs><sodipodi:namedview
   id="namedview3931"
   pagecolor="#505050"
   bordercolor="#eeeeee"
   borderopacity="1"
   inkscape:showpageshadow="0"
   inkscape:pageopacity="0"
   inkscape:pagecheckerboard="0"
   inkscape:deskcolor="#505050"
   showgrid="false"
   inkscape:zoom="0.15232542"
   inkscape:cx="2195.9565"
   inkscape:cy="351.22174"
   inkscape:window-width="1390"
   inkscape:window-height="1205"
   inkscape:window-x="0"
   inkscape:window-y="25"
   inkscape:window-maximized="0"
   inkscape:current-layer="g3928" />
<style
   type="text/css"
   id="style3898">
	.st0{fill:#30308F;}
	.st1{fill:#FFFFFF;}
</style>
<g
   id="g3928">
	
	<g
   id="g2138"><g
     id="g3922">
		<g
   id="g3920">
			<g
   id="g3918">
				<g
   id="g3914">
						<path
   class="st0"
   d="M 781.3,330.6 758,210.6 704.3,330.7 h 77 m 842.6,304.9 h -127.1 l -17,-382.7 -165.3,382.7 h -84.7 l -70.7,-346 -110.2,346 h -216 l -32.5,-185 H 653.5 l -83.3,185 H 437.5 L 710,17 h 156.8 l 83.4,500 162.5,-500 h 125.7 L 1300.5,355.9 1444.4,17 H 1597 l 26.9,618.6"
   id="path3902" />
						<polyline
   class="st0"
   points="1988.3,635.6 2009.5,502.9 1787.6,502.9 1805.3,392.7 1998.2,392.7 2019.4,259.9 1824.4,259.9         1841.3,149.8 2063,149.8 2084.2,17 1732.5,17 1633.8,635.6 1988.3,635.6       "
   id="polyline3904" />
						<polyline
   class="st0"
   points="3639.3,17 3491.1,17 3365.4,219 3286.2,17 3140.8,17 3290.5,343.2 3244.4,635.6 3371.5,635.6         3410.6,377.1 3639.3,17       "
   id="polyline3906" />
						<path
   class="st0"
   d="m 2884.6,517.9 c 67.3,30.1 149.6,-28.9 183.9,-131.9 34.3,-102.9 7.6,-210.7 -59.7,-240.8 -67.2,-30.1 -149.5,29 -183.9,131.9 -34.1,102.9 -7.5,210.7 59.7,240.8 M 2692.3,273.1 c 39.5,-171 185.7,-283.2 326.5,-250.7 140.9,32.6 223,197.5 183.6,368.5 C 3162.9,562 3016.7,674.1 2875.9,641.6 2735.1,609.1 2652.8,444.2 2692.3,273.1"
   id="path3908" />
						<path
   class="st0"
   d="m 166.2,72.1 c -121,75 -179.3,189.2 -163.7,344.6 18,180.3 251.4,293.8 449.2,179.5 17.3,-10 10.5,-8.5 17,-14.2 l 39.6,-251.3 h -236 l -18.1,115.8 h 98.6 l -11.3,62.2 C 285,531.3 189,522.8 148.1,449.3 c -25.9,-46.5 -50,-150.4 59.4,-245.7 89,-77.7 242.9,-91.8 331.9,-50.8 0,0 11.3,-65 19.8,-125.8 -171.2,-59.4 -304,-10 -393,45.1"
   id="path3910" />
						<path
   class="st0"
   d="m 2277.8,20.5 -98.2,613.9 c 0,0 203.2,0 285.9,0 117.8,0 289.9,-173.6 133.2,-315.4 161.2,-166.8 1.4,-297.1 -84.1,-298.5 -68.7,-1.2 -238.3,0 -238.3,0 h 1.5 m 70.1,371.4 c 0,0 26.6,0 106.5,0 100.9,0 98.2,123.4 -14,123.4 -70.1,0 -112.2,0 -112.2,0 l 19.7,-123.4 m 39.3,-241 c 0,0 2.8,0 82.7,0 89.7,0 71.5,115 -14,115 -70.1,0 -88.3,0 -88.3,0 l 19.6,-115"
   id="path3912" />
					</g>
			</g>
		</g>
	</g><g
     id="g2115"><path
       id="path2014"
       style="fill:#ed1c24;fill-opacity:1"
       d="m 3762.6992,17 c -41.5998,0 -75.8984,32.300098 -75.8984,81 v 456.59961 c 0,48.4999 34.2986,81 75.8984,81 41.8,-0.2 76.5008,-32.7001 76.3008,-81 V 97.800781 C 3839.2,49.500879 3804.2992,17 3762.6992,17 Z m 0.2012,19 c 3.9875,0 7.8744,0.369532 11.625,1.089844 5.6259,1.080467 10.9429,2.950198 15.8281,5.554687 0.6501,0.346568 1.2561,0.764325 1.8906,1.136719 0.9549,0.560475 1.9279,1.092746 2.8457,1.710938 5e-4,3.11e-4 0,-3.12e-4 0,0 C 3810.3674,55.781397 3820.375,74.000702 3820.5,98 v 456.40039 c 0,38.39996 -25.6996,62 -57.5996,62 -3.9868,0 -7.8777,-0.36977 -11.6328,-1.08984 -6e-4,-1.2e-4 0,1.2e-4 0,0 -3.755,-0.7202 -7.3751,-1.79136 -10.8222,-3.19727 -6e-4,-2.2e-4 0,2.2e-4 0,0 -1.7233,-0.7029 -3.4031,-1.49154 -5.0352,-2.35937 -4e-4,-2.7e-4 0,2.6e-4 0,0 -4.8972,-2.60427 -9.3612,-5.94109 -13.2656,-9.95313 -3.9051,-4.01272 -7.2494,-8.70092 -9.9043,-14.00586 -2.6547,-5.30449 -4.62,-11.22461 -5.7676,-17.70508 -0.765,-4.3203 -1.166,-8.88945 -1.166,-13.68945 V 98 c -0.025,-4.824995 0.358,-9.412114 1.1094,-13.746094 1.127,-6.50097 3.0832,-12.432183 5.7363,-17.738281 1.7687,-3.537399 3.8465,-6.797366 6.1953,-9.763672 C 3728.9113,43.403578 3744.9567,36 3762.9004,36 Z" /><path
       id="path1994"
       style="fill:#ed1c24;fill-opacity:1"
       d="M 3750.9004 304.59961 C 3736.2004 304.59961 3724 318.7008 3724 336.30078 C 3724 350.80077 3732.2996 363.2 3743.5996 367 L 3743.5996 345.59961 L 3740.8008 345.59961 C 3732.1008 345.59961 3730.0996 339.89922 3730.0996 336.69922 C 3730.0996 333.49922 3732.1008 327.59961 3740.8008 327.59961 L 3750.6992 327.59961 L 3750.6992 368.19922 C 3765.3992 368.19922 3777.8008 353.90076 3777.8008 336.30078 C 3777.8008 318.7008 3765.9004 304.59961 3750.9004 304.59961 z M 3762.3984 327.78125 C 3764.4209 327.82422 3766 328.19922 3767.5 329.19922 C 3770.5 330.79922 3771.7004 334.10039 3771.9004 336.90039 C 3771.9004 339.70039 3770.5 342.69961 3767.5 344.59961 C 3765.1 345.99961 3762.1992 346 3758.1992 346 L 3758.1992 328 C 3759.8117 327.85 3761.185 327.75547 3762.3984 327.78125 z " /><path
       style="fill:#ed1c24;fill-opacity:1"
       d="m 3777,413.6 c -0.2,-7.1 -3.2,-13.1 -7.3,-17.2 1.2,0 5,0 5,0 V 375 H 3727 v 21.4 c 0,0 29.3,0 31.3,0 4.2,0 8.7,4.4 8.7,10.3 0,5.8 -4.6,9.9 -8.7,9.9 -3,0 -31.3,0 -31.3,0 V 438 c 0,0 22.6,0 25.8,0 19.1,-0.1 24.4,-16.5 24.2,-24.4 z"
       id="path1992" /><path
       style="fill:#ed1c24;fill-opacity:1"
       d="m 3777,238.3 c -0.2,-7.1 -3.2,-13.1 -7.3,-17.2 1.2,0 5,0 5,0 V 199.7 H 3727 v 21.4 c 0,0 29.3,0 31.3,0 4.2,0 8.7,4.4 8.7,10.3 0,5.9 -4.6,9.9 -8.7,9.9 -3,0 -31.3,0 -31.3,0 v 21.4 c 0,0 22.6,0 25.8,0 19.1,0.1 24.4,-16.3 24.2,-24.4 z"
       id="path1990" /><path
       id="path1986"
       style="fill:#ed1c24;fill-opacity:1"
       d="M 3751.5996 444.69922 C 3734.9996 444.69922 3728.8 457.40039 3728 459.40039 C 3724.6 466.70038 3724.6008 475.99923 3729.8008 484.19922 L 3727 484.19922 L 3727 505.40039 L 3798.6992 505.40039 L 3798.6992 484.19922 C 3798.7992 484.29922 3783.5004 484.30078 3772.4004 484.30078 C 3774.4004 480.90078 3776.1996 477.19921 3776.5996 472.19922 C 3777.9996 456.59923 3764.2996 444.69922 3751.5996 444.69922 z M 3742.5996 467.30078 L 3751.0996 467.30078 L 3759.5996 467.30078 C 3767.0996 467.30078 3768.9004 472.30078 3768.9004 475.80078 C 3768.9004 479.30078 3767.0996 484.30078 3759.5996 484.30078 L 3751.0996 484.30078 L 3742.5996 484.30078 C 3735.2996 484.30078 3733.3008 479.30078 3733.3008 475.80078 C 3733.3008 472.30078 3735.2996 467.30078 3742.5996 467.30078 z " /><path
       id="path1982"
       style="fill:#ed1c24;fill-opacity:1"
       d="M 3751.0996 512.40039 C 3736.3996 512.40039 3724.1992 526.50041 3724.1992 543.90039 C 3724.1992 561.30037 3736.0996 575.40039 3751.0996 575.40039 C 3766.0996 575.40039 3778 561.70037 3778 543.90039 C 3778 526.50041 3766.0996 512.40039 3751.0996 512.40039 z M 3741.3008 534.80078 L 3751.5996 534.80078 L 3761.5 534.80078 C 3769 534.80078 3772.1992 539.19922 3772.1992 543.69922 C 3772.1992 547.89921 3769.2 552.59961 3761.5 552.59961 L 3751.4004 552.59961 L 3741.3008 552.59961 C 3733.6008 552.59961 3730.5996 548.19921 3730.5996 543.69922 C 3730.5996 539.49922 3733.8008 534.80078 3741.3008 534.80078 z " /><path
       style="fill:#ed1c24;fill-opacity:1"
       d="m 3784.3,166.2 v 21.6 h 14.7 v -21.6 z"
       id="path1980" /><path
       style="fill:#ed1c24;fill-opacity:1"
       d="m 3727.1,166.2 v 21.6 h 47.7 v -21.6 z"
       id="path1978" /><path
       style="fill:#ed1c24;fill-opacity:1"
       d="m 3774.8,307.4 h 7.1 v -11.7 h 9.7 v -21.6 h -9.7 v -11.7 h -7.1 v 11.7 h -47.7 v 21.6 h 47.7 z"
       id="path1976" /><path
       style="fill:#ed1c24;fill-opacity:1"
       d="m 3748.7,131.7 50.1,-30.9 V 78.4 h -71.7 v 22.2 h 50.1 l -50.1,31.1 v 22.2 h 71.7 v -22.2 z"
       id="path3924" /></g></g>
</g>
</svg>
