<?xml version="1.0" encoding="UTF-8" standalone="no"?>
<svg
   id="logo"
   viewBox="0 0 261.88 261.88"
   version="1.1"
   xmlns="http://www.w3.org/2000/svg"
   xmlns:svg="http://www.w3.org/2000/svg">
  <defs
     id="defs1">
    <style
       id="style1">
      .cls-1 {
        fill: #e60012;
      }

      .cls-2 {
        fill: #fff;
      }
    </style>
  </defs>
  <g
     id="g4">
    <rect
       class="cls-1"
       x="0"
       width="261.88"
       height="261.88"
       id="rect2"
       y="0" />
    <path
       class="cls-2"
       d="m 47.87,170.01 7.29,9.82 h 2.9 v -14.68 h -2.98 v 9.65 l -7.22,-9.65 h -2.97 v 14.68 h 2.98 z m 71.67,-4.86 H 107.1 v 3.12 h 4.69 v 11.57 h 3.16 v -11.57 h 4.59 z m -0.9,49.9 h 6.17 v -27.71 h -6.17 z m -32.19,-45.04 7.29,9.82 h 2.9 v -14.68 h -2.98 v 9.65 l -7.22,-9.65 h -2.97 v 14.68 h 2.98 z m 13.93,37.43 -5.87,-20.1 h -4.92 l -5.84,20.03 -5.33,-20.03 h -6.03 l 7.84,27.71 h 6.66 l 5.17,-18.25 5.13,18.25 h 6.69 l 7.88,-27.71 h -6.03 z m -43.99,-9.22 c -4,-0.66 -6.59,-1.4 -6.59,-3.26 0,-2.15 2.88,-2.98 6.74,-2.98 3.59,0 7.19,1.37 8.48,1.91 l 1.97,-4.8 c -1.39,-0.55 -5.82,-2.13 -10.73,-2.13 -5.99,0 -12.35,2.92 -12.35,8.33 0,4.39 3.09,6.63 11.04,7.99 5.6,0.96 8.68,1.49 8.6,3.9 -0.05,1.33 -1.07,3.55 -7.39,3.55 -5.08,0 -8.65,-1.84 -9.9,-2.59 l -2.62,4.73 c 1.4,0.74 6.09,2.93 12.12,2.93 8.81,0 13.47,-3.05 13.47,-8.83 0,-3.35 -1.13,-6.84 -12.85,-8.76 M 72.4,165.15 h -3.27 v 14.68 h 3.27 z m 94.65,14.68 v -14.68 h -2.98 v 9.65 l -7.22,-9.65 h -2.97 v 14.68 h 2.98 v -9.82 l 7.29,9.82 z m -25.34,-2.72 h -8.44 v -3.44 h 7.8 v -2.66 h -7.8 v -3.17 h 8.44 v -2.7 h -11.42 v 14.68 h 11.42 v -2.72 z m 68.7,-12.46 c -4.31,0 -7.82,3.52 -7.82,7.84 0,4.32 3.51,7.84 7.82,7.84 4.31,0 7.82,-3.52 7.82,-7.84 0,-4.32 -3.51,-7.84 -7.82,-7.84 m 0,12.41 c -2.52,0 -4.56,-2.05 -4.56,-4.57 0,-2.52 2.05,-4.57 4.56,-4.57 2.51,0 4.56,2.05 4.56,4.57 0,2.52 -2.05,4.57 -4.56,4.57 m 1,21.2 h -12.94 v -10.92 h -5.73 v 27.71 h 5.73 V 204 h 12.94 v 11.05 h 5.73 v -27.71 h -5.73 z m -79.85,-5.04 h 8.85 v 21.83 h 5.96 v -21.83 h 8.65 v -5.88 h -23.47 v 5.88 z m 42.74,-0.62 c 3.13,0 6.04,1.67 7.61,4.3 l 4.51,-3.92 c -2.76,-4.1 -7.31,-6.54 -12.28,-6.54 -8.15,0 -14.79,6.63 -14.79,14.79 0,8.16 6.64,14.79 14.79,14.79 4.96,0 9.52,-2.44 12.28,-6.54 l -4.51,-3.92 c -1.56,2.63 -4.48,4.3 -7.61,4.3 -4.85,0 -8.79,-3.87 -8.79,-8.63 0,-4.76 3.94,-8.63 8.79,-8.63 m 11.24,-27.45 h -6.07 v 14.68 h 6.07 c 4.16,0 7.55,-3.29 7.55,-7.34 0,-4.05 -3.39,-7.34 -7.55,-7.34 m 0.15,11.6 h -3.2 v -8.51 h 3.2 c 2.35,0 4.26,1.91 4.26,4.26 0,2.35 -1.91,4.26 -4.26,4.26"
       id="path2" />
    <path
       class="cls-2"
       d="M 83.3,45.87 H 61.67 C 47.66,45.87 36.3,57.23 36.3,71.24 v 48.2 c 0,14.01 11.36,25.37 25.37,25.37 H 83.3 c 0.4,0 0.73,-0.32 0.73,-0.73 V 46.59 c 0,-0.4 -0.32,-0.72 -0.73,-0.72 z m -7.26,90.96 H 61.67 c -4.65,0 -9.01,-1.81 -12.3,-5.09 -3.29,-3.28 -5.09,-7.65 -5.09,-12.3 v -48.2 c 0,-4.65 1.81,-9.02 5.09,-12.3 3.29,-3.28 7.65,-5.09 12.3,-5.09 h 14.37 v 82.99 z M 61.01,66.25 c 5.14,0 9.3,4.17 9.3,9.3 0,5.13 -4.16,9.3 -9.3,9.3 -5.14,0 -9.3,-4.17 -9.3,-9.3 0,-5.13 4.17,-9.3 9.3,-9.3 z M 109.87,45.87 H 94.56 c -0.36,0 -0.64,0.29 -0.64,0.65 v 97.57 c 0,0.4 0.32,0.73 0.72,0.73 h 15.23 c 14.01,0 25.37,-11.36 25.37,-25.37 v -48.2 c 0,-14.01 -11.36,-25.37 -25.37,-25.37 z m 3.63,64.42 c -5.53,0 -10,-4.48 -10,-10 0,-5.52 4.48,-10 10,-10 5.52,0 10,4.48 10,10 0,5.52 -4.48,10 -10,10 z"
       id="path3" />
    <path
       class="cls-2"
       d="M 151.91,144.81 V 127.8 c 1.76,-1.44 8.4,-7.16 15.43,-13.2 6.32,-5.44 12.63,-10.89 19.07,-16.18 4.85,-3.99 14.07,-11.31 14.36,-18.49 0.35,-8.44 -5.64,-13.91 -14.58,-13.91 -5.33,0 -11.58,2.96 -15.37,6.18 -3.79,3.22 -8.65,7.38 -8.65,7.38 0,0 -14.01,-15.18 -14.01,-15.18 11.89,-13.33 24.68,-20.09 38,-20.09 28.4,-0.7 49.8,30.95 28.2,55.76 -7.84,8.64 -16.73,16.73 -25.88,23.92 h 37.08 v 20.82 h -73.67 z"
       id="path4" />
  </g>
</svg>
