<?xml version="1.0" encoding="UTF-8" standalone="no"?>
<!-- Generator: Adobe Illustrator 15.1.0, SVG Export Plug-In  -->

<svg
   version="1.1"
   x="0px"
   y="0px"
   width="1000"
   height="295.19504"
   viewBox="-48.423 -13.517 1000 295.19504"
   enable-background="new -48.423 -13.517 800 230"
   xml:space="preserve"
   id="svg7171"
   inkscape:version="1.3.2 (091e20e, 2023-11-25, custom)"
   sodipodi:docname="PlayStation_Vita.svg"
   xmlns:inkscape="http://www.inkscape.org/namespaces/inkscape"
   xmlns:sodipodi="http://sodipodi.sourceforge.net/DTD/sodipodi-0.dtd"
   xmlns="http://www.w3.org/2000/svg"
   xmlns:svg="http://www.w3.org/2000/svg"
   xmlns:rdf="http://www.w3.org/1999/02/22-rdf-syntax-ns#"
   xmlns:cc="http://creativecommons.org/ns#"
   xmlns:dc="http://purl.org/dc/elements/1.1/"><metadata
   id="metadata7179"><rdf:RDF><cc:Work
       rdf:about=""><dc:format>image/svg+xml</dc:format><dc:type
         rdf:resource="http://purl.org/dc/dcmitype/StillImage" /></cc:Work></rdf:RDF></metadata><sodipodi:namedview
   pagecolor="#ffffff"
   bordercolor="#666666"
   borderopacity="1"
   objecttolerance="10"
   gridtolerance="10"
   guidetolerance="10"
   inkscape:pageopacity="0"
   inkscape:pageshadow="2"
   inkscape:window-width="1366"
   inkscape:window-height="705"
   id="namedview7177"
   showgrid="false"
   inkscape:zoom="0.75800003"
   inkscape:cx="499.99998"
   inkscape:cy="143.13984"
   inkscape:window-x="-8"
   inkscape:window-y="-8"
   inkscape:window-maximized="1"
   inkscape:current-layer="svg7171"
   inkscape:showpageshadow="2"
   inkscape:pagecheckerboard="0"
   inkscape:deskcolor="#d1d1d1" />
<defs
   id="defs7173">
</defs>
<path
   id="path2"
   style="clip-rule:evenodd;fill-rule:evenodd;stroke-width:1.03311"
   d="m 894.12106,118.07693 -105.91037,-0.0375 -18.28242,35.00624 h -24.08319 c 0,0 75.05557,-142.093491 78.04454,-146.9464268 2.98753,-4.855816 11.54968,-20.1881532 25.36808,-19.4419912 13.81553,0.746162 19.5918,11.2630169 22.20769,15.7443107 C 874.07696,6.8828576 951.577,153.04567 951.577,153.04567 H 913.02288 L 894.12106,118.07688 Z M 848.83852,33.895997 c -3.34765,-6.722663 -10.95187,-8.37776 -15.06008,-0.537294 -1.71273,3.23673 -34.09155,64.066238 -34.09155,64.066238 l 83.4967,0.0072 -34.34507,-63.536146 z M 713.22137,6.6653971 713.34382,151.56347 H 678.90223 V 6.820967 L 613.5223,6.7186891 V -13.406084 L 778.9744,-13.517 778.8995,6.8411292 713.22137,6.665392 Z M 624.34597,253.24321 c 4.63397,-0.84988 8.76236,-0.34139 8.76236,-4.12695 0,-3.33612 -3.44848,-3.95696 -6.04996,-3.95696 -3.61701,0 -6.15945,1.47072 -6.44466,4.63543 h -6.44465 c 0.45086,-7.52069 6.84078,-9.7246 13.28399,-9.7246 5.71002,0 11.70236,2.31916 11.70236,8.48147 v 15.03704 c 0,1.5802 0.33996,2.20392 1.52833,2.20392 0.39469,0 0.90463,0 1.58165,-0.11524 v 4.46689 c -0.9608,0.33995 -2.9933,0.73464 -4.06789,0.73464 -2.60148,0 -4.46833,-0.90318 -4.97681,-3.5594 -2.54387,2.48914 -6.66937,3.5594 -10.11641,3.5594 -5.25915,0 -10.00549,-2.82475 -10.00549,-8.53477 -10e-4,-7.29308 5.82093,-8.48004 11.24718,-9.10087 z m 1.13076,12.54935 c 2.82476,0 7.23404,-1.47072 7.23404,-5.54292 v -4.80252 c -1.97777,1.30074 -5.0863,1.24312 -7.91538,1.75161 -2.76858,0.45231 -5.25482,1.47071 -5.25482,4.86013 0,2.88383 3.67606,3.7337 5.93616,3.7337 z m -27.98108,-2.88382 v -17.2424 h -4.86303 v -4.8054 h 4.86303 v -8.7638 h 6.44465 v 8.7638 h 5.82381 v 4.8054 h -5.82381 v 15.60315 c 0,2.65766 0.22471,4.01314 3.10997,4.01314 0.90318,0 1.80779,0 2.71384,-0.22614 v 4.97536 c -1.41454,0.11092 -2.77145,0.33708 -4.18312,0.33708 -6.72987,0.001 -7.97299,-2.59861 -8.08534,-7.46019 z M 556.09949,-12.497144 h 35.02209 V 152.50266 h -35.02209 z m 4.65271,274.164204 10.34544,-31.94237 h 7.17785 l -13.79247,40.36478 h -7.85776 l -13.45541,-40.36478 h 7.35071 l 10.11928,31.94237 z M 430.89117,153.01403 c -13.7896,-0.74616 -19.55436,-11.24141 -22.16305,-15.71262 -2.61012,-4.47265 -79.96035,-150.353134 -79.96035,-150.353134 h 38.48065 l 64.05904,118.920684 c 3.34044,6.7097 10.93315,8.36191 15.03415,0.53442 3.35342,-6.33518 63.72918,-119.455104 63.72918,-119.455104 h 24.03852 c 0,0 -74.9144,141.818364 -77.89617,146.662654 -2.98465,4.84574 -11.53094,20.14926 -25.32197,19.4031 z m -94.50908,87.84691 -11.36386,30.80872 c -2.093,5.25916 -3.61845,10.00838 -10.34688,10.00838 -1.52545,0 -2.99473,-0.1138 -4.46545,-0.33996 v -5.42912 c 1.01698,0.16998 2.03539,0.39469 3.05235,0.39469 2.99618,0 3.73081,-1.58019 4.52164,-4.06788 l 0.73463,-2.26153 -11.08008,-29.1133 h 7.06694 l 7.6316,21.82165 h 0.11235 l 7.40689,-21.82165 z M 229.2257,32.010425 V 107.5471 c 0,27.61953 -12.43412,44.85185 -46.89875,44.85185 h -74.03428 v -20.42296 h 64.59346 c 13.21916,0 21.11725,-10.73724 21.11725,-24.42744 V 32.010425 c 0,-24.0774167 11.69372,-44.850401 45.92211,-44.850401 h 73.52579 V 7.5858563 h -63.6125 C 232.65688,6.8425746 229.2257,20.915944 229.2257,32.010425 Z M 83.889713,78.749278 H 4.6639939 c -10.8596854,0 -18.8845299,8.262522 -18.8845299,22.425202 v 51.45783 H -48.423 v -49.56938 c 0,-27.854322 17.468551,-46.622174 42.2532369,-46.622174 H 73.974975 c 19.65374,-0.747603 24.341021,-10.50245 24.341021,-24.666568 0,-10.858244 -5.432002,-25.682097 -24.341021,-24.1897729 H -48.423 V -12.838535 H 83.889713 c 34.699427,0 48.391067,20.0628336 48.391067,44.614163 0,27.854323 -13.69164,46.97365 -48.391067,46.97365 z M 259.50288,242.21786 c 0,4.97394 -2.20535,12.43845 -13.73773,12.38083 h -10.74157 v 15.49223 h -7.0655 v -40.36479 h 17.80707 c 11.53238,-0.001 13.73773,7.46018 13.73773,12.49173 z m -24.4793,-6.72554 v 13.34161 h 10.34543 c 3.16615,0 7.06694,-1.58451 7.06694,-6.67224 0,-5.31389 -3.22232,-6.66937 -6.95314,-6.66937 z m 36.63109,34.59715 h -6.44466 v -40.36478 h 6.44466 z m 16.95862,-16.84626 c 4.63543,-0.84988 8.76237,-0.34139 8.76237,-4.12695 0,-3.33612 -3.44848,-3.95696 -6.04996,-3.95696 -3.61846,0 -6.16232,1.47072 -6.44466,4.63543 h -6.44465 c 0.45087,-7.52069 6.84078,-9.7246 13.28399,-9.7246 5.71002,0 11.7038,2.31916 11.7038,8.48147 v 15.03704 c 0,1.5802 0.33851,2.20392 1.52545,2.20392 0.39614,0 0.90462,0 1.58308,-0.11524 v 4.46689 c -0.96079,0.33995 -2.99473,0.73464 -4.07076,0.73464 -2.59861,0 -4.46545,-0.90318 -4.97394,-3.5594 -2.5453,2.48914 -6.6708,3.5594 -10.11784,3.5594 -5.2577,0 -10.00692,-2.82475 -10.00692,-8.53477 0,-7.29308 5.82236,-8.48004 11.25004,-9.10087 z m 1.13077,12.54935 c 2.8262,0 7.23547,-1.47072 7.23547,-5.54292 v -4.80252 c -1.97921,1.30074 -5.08773,1.24312 -7.91537,1.75161 -2.77002,0.45231 -5.25627,1.47071 -5.25627,4.86013 0.001,2.88383 3.67463,3.7337 5.93617,3.7337 z m 66.3076,-0.50993 c 6.2185,0 8.53621,-3.05379 8.53621,-6.1047 0,-3.10997 -1.69542,-4.35453 -3.33467,-4.97538 -2.8262,-1.07459 -6.50084,-1.80922 -12.04087,-3.33467 -6.89697,-1.86685 -8.9309,-6.04709 -8.9309,-10.23308 0,-8.08103 7.46162,-11.8709 14.75471,-11.8709 8.42386,0 15.48934,4.46689 15.48934,12.8893 h -7.06693 c -0.33851,-5.20152 -3.84461,-7.12311 -8.70619,-7.12311 -3.2785,0 -7.40544,1.18694 -7.40544,5.25771 0,2.8262 1.92159,4.40783 4.8054,5.19864 0.62084,0.17142 9.55319,2.48769 11.6433,3.11141 5.31389,1.58164 7.8592,6.10327 7.8592,10.28782 0,9.0447 -8.02774,12.66316 -16.05546,12.66316 -9.21467,0 -16.6763,-4.40928 -16.84626,-14.4162 h 7.06548 c 10e-4,6.2185 4.58069,8.65 10.23308,8.65 z m 23.06333,-33.18549 h 6.44609 v 8.7638 h 5.82094 v 4.8054 h -5.82094 v 15.60315 c 0,2.65766 0.22472,4.01314 3.10709,4.01314 0.90462,0 1.81068,0 2.71385,-0.22614 v 4.97536 c -1.4131,0.11092 -2.77003,0.33708 -4.18313,0.33708 -6.72697,0 -7.97154,-2.60005 -8.0839,-7.46162 v -17.2424 h -4.86157 v -4.8054 h 4.86157 z m 26.85176,21.14607 c 4.63543,-0.84988 8.76236,-0.34139 8.76236,-4.12695 0,-3.33612 -3.44847,-3.95696 -6.04852,-3.95696 -3.61845,0 -6.16232,1.47072 -6.44609,4.63543 h -6.44465 c 0.45231,-7.52069 6.84078,-9.7246 13.28543,-9.7246 5.71001,0 11.70236,2.31916 11.70236,8.48147 v 15.03704 c 0,1.5802 0.33707,2.20392 1.5269,2.20392 0.39613,0 0.90317,0 1.58307,-0.11524 v 4.46689 c -0.9608,0.33995 -2.99617,0.73464 -4.06932,0.73464 -2.60149,0 -4.46689,-0.90318 -4.97682,-3.5594 -2.54242,2.48914 -6.66937,3.5594 -10.11784,3.5594 -5.2577,0 -10.00549,-2.82475 -10.00549,-8.53477 -0.001,-7.29308 5.82093,-8.48004 11.24861,-9.10087 z m 1.12933,12.54935 c 2.8262,0 7.23547,-1.47072 7.23547,-5.54292 v -4.80252 c -1.9792,1.30074 -5.08629,1.24312 -7.91394,1.75161 -2.76857,0.45231 -5.25626,1.47071 -5.25626,4.86013 0,2.88383 3.6732,3.7337 5.93473,3.7337 z m 22.83718,-33.69542 h 6.44464 v 8.7638 h 5.82238 v 4.8054 h -5.82238 v 15.60315 c 0,2.65766 0.22616,4.01314 3.10853,4.01314 0.90461,0 1.80923,0 2.71528,-0.22614 v 4.97536 c -1.4131,0.11092 -2.77001,0.33708 -4.18455,0.33708 -6.72699,0 -7.97011,-2.60005 -8.0839,-7.46162 v -17.2424 h -4.86159 v -4.8054 h 4.86159 z m 23.7994,3.73225 h -6.44465 v -6.1047 h 6.44465 z m 0,34.26008 h -6.44465 v -29.22853 h 6.44465 z m 20.68944,-30.02078 c 9.38464,0 14.75326,6.4461 14.75326,15.37843 0,8.98564 -5.37006,15.43029 -14.75326,15.43029 -9.38321,0 -14.75328,-6.44465 -14.75328,-15.43029 0,-8.93233 5.37007,-15.37843 14.75328,-15.37843 z m 0,25.72387 c 5.76763,0 8.31005,-5.25915 8.31005,-10.34544 0,-5.03299 -2.54242,-10.28926 -8.31005,-10.28926 -5.7662,0 -8.31007,5.25483 -8.31007,10.28926 10e-4,5.08485 2.54387,10.34544 8.31007,10.34544 z m 26.5118,-20.63326 0.11236,0.11092 c 1.92158,-3.22089 5.2577,-5.20009 9.10087,-5.20009 6.3323,0 10.34544,3.39086 10.34544,9.95075 v 20.07004 h -6.44321 v -18.37606 c -0.1138,-4.57635 -1.92447,-6.55556 -5.71002,-6.55556 -4.29691,0 -7.06693,3.39086 -7.06693,7.68778 v 17.24384 h -6.44609 v -29.22853 h 6.10614 v 4.29691 z m 87.34708,-9.32991 h -6.44465 v -6.1047 h 6.44465 z m 0,34.26008 h -6.44465 v -29.22853 h 6.44465 z" />
</svg>
