<?xml version="1.0" encoding="utf-8"?>
<!-- Generator: Adobe Adobe Illustrator 24.2.0, SVG Export Plug-In . SVG Version: 6.00 Build 0)  -->
<svg version="1.1" id="Layer_1" xmlns="http://www.w3.org/2000/svg" xmlns:xlink="http://www.w3.org/1999/xlink" x="0px" y="0px"
	 width="915.2px" height="313px" viewBox="0 0 915.2 313" style="enable-background:new 0 0 915.2 313;" xml:space="preserve">
<style type="text/css">
	.st0{fill:#24A05D;}
	.st1{fill:#242D52;}
	.st2{fill:#FFFFFF;}
</style>
<g>
	<rect y="281.6" class="st0" width="915.2" height="6.5"/>
	<g>
		<path d="M74.4,273.7v-4.1c4.2-0.3,13.6-0.3,15.7-5.1c0.9-2.2,0.9-4.9,0.9-7.3v-79.5L57.2,276l-33.9-93.8v62.4
			c0,10.1-0.4,18.6,9.8,23.5c2.9,1.3,5.2,1.6,8.4,1.9v3.7H0.6v-3.2c16-2.7,18.7-10.9,18.7-25.9v-56.8c0-2.2,0-5.2-0.9-7.3
			c-2.1-5.2-13.7-5.2-18.4-5.5v-4.2h35.3L63,248l25.9-77.7h33.5v3.7c-4.4,0.3-13.8,0.4-15.9,5.1c-0.9,2.2-0.9,5.4-0.9,7.7v70.6
			c0,2.4,0,5,0.9,7.3c2.1,4.8,11.5,4.8,15.9,5.1v4.1H74.4z"/>
		<path d="M227.1,225.6c-0.8-0.3-1.6-0.5-2.5-0.8c-0.9-0.3-2.1-0.6-3.4-1c-5.7-1.7-15.3-4.6-17.7-8.4c-0.6-1.3-0.9-2.8-0.9-4.5
			c0-7.3,8.9-11.2,15.3-11.2c10.2,0.1,21.9,9.8,23,24.2l0.1,0.9h3.5v-28.3h-3.2l-0.2,0.7l-0.1,0.4c-0.9,2.8-1.7,4.2-2.4,4.2
			c-0.4,0-1.5-0.5-3.2-1.6l-0.3-0.2c-5.5-3-10.7-4.4-17-4.4c-13.3,0-27.6,8.6-27.6,22.5c0,7.9,5.3,14.1,15.8,18.4
			c2,0.8,4.7,1.6,7.8,2.5c3,0.9,6.3,1.8,9.5,3c0.5,0.2,1.1,0.4,1.6,0.6c7.2,2.6,12.8,4.6,12.8,12.6c0,6.8-6.5,14.2-17,14.2
			c-13.4,0-22.6-9.5-28.2-29.2l-0.2-0.7h-3.4v19c-0.6,4.8-2.2,9.5-6.7,9.5c-2.9,0-3.5-2.8-3.5-7.3l-0.5-36.8
			c0-7.8-0.6-15.8-7.5-20.8c-7.1-5.2-15.7-6.3-21.7-6.3c-15.8,0-27.8,8.3-27.8,19.3c0,5.3,4,9.4,9,9.4c4.7,0,8.6-3.7,8.6-8.2
			c0-3.9-2.2-5.6-3.9-6.8c-1.3-1-1.9-1.5-1.9-2.5c0-4.9,10.8-6.9,15.2-6.9c12.5,0,15,6.9,15,18.8l-0.1,8.8
			c-3.2,0.3-12.2,1.5-21.3,4.5c-7.1,2.4-12.2,5-15.9,8c-5,4.1-7.5,9.2-7.5,15.2c0,12.1,9.8,18.4,19.5,18.4h0.2
			c13.5,0,21.9-10.5,25.4-16.7c0.5,4.1,1.5,7.3,2.9,9.7c2.3,3.8,6,5.8,11,5.8c5,0,8.8-1.5,11.4-4.5v4.5h3.4l0.2-0.7
			c0.1-0.4,0.3-1,0.5-1.7c1.3-4.6,2.3-7,3-7.2c0.7,0,3.4,2,4.5,2.8c0.6,0.5,1.1,0.8,1.5,1c5.2,3.4,12.1,5.4,18.5,5.4
			c7.2,0,14.5-2.4,20-6.5c6.2-4.6,9.6-11.2,9.6-18.5C250.2,233.4,237.9,229.2,227.1,225.6z M163.4,236.8c0,9.3-0.4,15.9-5.2,23
			c-3.6,5.4-8.8,8.6-13.9,8.6c-6.8,0-9.2-6.8-9.2-12.7c0-17,12.7-20.4,28.2-22.6V236.8z"/>
		<path d="M359,245.4l-0.1,0.8c-2.2,14.5-12,22.9-26.9,22.9c-8.3,0-14-2.9-17.4-8.9c-2.8-4.8-4.1-11.6-4.1-20.8c0-2.5,0-4.8,0.1-7.2
			h51.1l0.1-0.8c0.2-1,0.2-2.1,0.2-3.1c0-9.1-3-17.4-8.5-23.4c-5.8-6.2-13.6-9.6-22.8-9.6c-19.7,0-37,18.3-37,39.2
			c0,6.9,1.7,13.2,4.6,18.8c-0.2,1-0.4,2-0.6,3c-1.5,7.5-3.9,11.8-11.6,11.8c-1.8,0-3.7-0.1-5.2-1c-4-2.3-3.9-10.8-3.9-15.4v-50.3
			h22.9V197h-22.9v-31.4h-3.5l-0.1,0.9c-1.6,20-6,30.8-24.7,30.8h-1v4.2h13.9v41.2c0,1.2,0,2.5-0.1,3.9c-0.2,6-0.3,12.8,2,17.9
			c3.1,6.7,11.4,9.6,18.2,9.6c12.6,0,18-6.8,20.3-15c7,8.8,17.7,14.3,29.8,14.3c8.2,0,15.4-2.5,20.8-7.1c5.5-4.7,8.9-11.5,10-19.6
			l0.1-1.1H359z M330.2,199.3c10.5,0,15.8,6.9,15.8,20.6c0,1.6,0,4-0.4,5.6c-0.7,1.9-3.6,2.8-9,2.8c-1,0-1.9,0-2.7,0
			c-0.6,0-1.2,0-1.6,0h-21.7C311.4,213,314.5,199.3,330.2,199.3z"/>
		<path d="M640.9,224.5c-0.8-0.3-1.7-0.6-2.5-0.8c-0.9-0.3-2.1-0.7-3.4-1c-5.8-1.7-15.5-4.6-17.9-8.4c-0.6-1.3-1-2.8-1-4.5
			c0-7.3,9-11.2,15.5-11.2c10.3,0.1,22.1,9.8,23.2,24.2l0.1,0.9h0.9h1.5h1v-1v-26.3v-1h-1h-1.5h-0.7l-0.2,0.7l-0.1,0.4
			c-0.9,2.8-1.7,4.2-2.5,4.2c-0.5,0-1.5-0.5-3.2-1.5l-0.3-0.2c-5.6-3-10.9-4.4-17.2-4.4c-6.4,0-13.1,2-18.3,5.5v-0.8v-1.7v-1h-1
			h-30.9h-1v1v1.7v0.9l0.9,0.1c5.8,0.6,10.5,1.6,10.5,7.4c0,3.1-2.8,11.3-5.5,17.9l-12,30.1l-17.9-44.6c-0.1-0.3-0.2-0.6-0.4-0.9
			c-0.7-1.7-1.4-3.5-1.4-5.1c0-3.8,7.1-4.3,10.5-4.6c0.3,0,0.6,0,0.8-0.1l0.9-0.1v-0.9v-1.7v-1h-1H525h-0.9v-29.1v-1h-1h-1.7h-0.7
			l-0.2,0.6c-0.2,0.5-0.4,1.1-0.6,1.7c-0.9,2.7-2.2,6.7-4.5,6.7c-1.2,0-2.3-0.7-3.4-1.4l-0.2-0.1c-8.3-5-14.9-8.6-25.1-8.6
			c-16.3,0-34.4,12.1-34.4,29.4c0,7.6,4.1,15.5,10.4,20c5.9,4.4,15.9,7.3,22.9,9.2l13.4,3.7c10.4,2.9,20,7.2,20,19
			c0,6.6-2.8,12.5-7.8,16.8c-4.7,4-11.3,6.3-17.9,6.3c-24.5,0-33.3-24.4-38.3-45.7l-0.2-0.8H454h-1.7h-1v1v47.6v1h1h1.7h0.7l0.3-0.6
			c0.2-0.6,0.5-1.3,0.8-2.1c1-3,2.9-8.5,5.2-8.5c1,0,1.8,0.5,2.7,1.1c0.2,0.1,0.4,0.3,0.6,0.4c9,6,16.9,10.6,29.5,10.6
			c18.2,0,37.6-13.6,37.6-33.8c0-8.2-4-16.3-10.6-21.2c-5.5-4.2-13.6-6.6-20.8-8.7c-1.2-0.3-2.3-0.7-3.4-1l-10.9-3.2l-0.2-0.1
			c-9.8-2.9-20.9-6.1-20.9-17.7c0-9,7.7-18.6,21.9-18.6c9,0,16.8,3.9,22.8,11.1c6.1,7.6,8.9,17.5,11.2,26.9l0.2,0.8h0.8h1.7h1v-1
			v-8.2l0,0.3l0.1,0.8l0.8,0.1c10.4,0.9,11.8,2.5,15.7,12.1l25.3,63.8c-0.2,0.4-0.3,0.9-0.5,1.3c-3.7,10.6-8.8,25.2-21.9,25.2
			c-1.2,0-3.6-0.6-3.6-1.6c0.1-0.2,0.7-0.7,1.2-1c1.7-1.3,4.2-3.2,4.2-7.5c0-5.2-3.7-9.1-8.7-9.1c-5.4,0-9.8,4.6-9.8,10.2
			c0,3.9,1.8,7.5,5,10.1c2.9,2.3,6.9,3.7,10.8,3.7c10.7,0,18.9-7.3,24.8-22.2l26.1-65.8c4.3-11.2,7.4-17.6,18.8-19l0.7-0.1
			c-5.6,3.9-9.5,9.7-9.5,16.8c0,7.9,5.4,14.1,16,18.4c2.1,0.8,4.8,1.6,7.9,2.5c3,0.9,6.4,1.8,9.7,3c0.5,0.2,1.1,0.4,1.6,0.6
			c7.3,2.6,13,4.6,13,12.6c0,6.8-6.6,14.2-17.3,14.2c-13.6,0-22.9-9.6-28.5-29.2l-0.2-0.7h-0.8h-1.7h-1v1v32.3v1h1h1.7h0.7l0.2-0.7
			c0.1-0.4,0.3-1,0.5-1.7c1.7-6,2.6-7.1,3-7.2c0.7,0,3.5,2,4.6,2.8c0.6,0.5,1.1,0.8,1.5,1c5.2,3.4,12.2,5.4,18.8,5.4
			c7.3,0,14.7-2.4,20.2-6.5c6.3-4.7,9.7-11.2,9.7-18.5C664.3,232.3,651.9,228.1,640.9,224.5z"/>
		<path d="M771,245.7l-0.1,0.9c-2.3,14.5-12.2,22.9-27.2,22.9c-8.4,0-14.1-2.9-17.7-8.9c-2.8-4.8-4.2-11.6-4.2-20.8
			c0-2.5,0-4.8,0.1-7.2h51.7l0.1-0.8c0.2-1,0.2-2.1,0.2-3.1c0-9.1-3.1-17.4-8.6-23.4c-5.8-6.2-13.8-9.5-23-9.5
			c-19.9,0-37.4,18.3-37.4,39.2c0,6.6,1.6,12.8,4.4,18.2c-0.2,0.9-0.3,1.7-0.5,2.6c-1.5,7.5-3.9,11.8-11.6,11.8
			c-1.8,0-3.7-0.1-5.2-1c-4-2.3-4-10.8-3.9-15.4v-50.3h22.9v-4.5h-22.9v-31.4h-3.5l-0.1,0.9c-1.6,20-6,30.8-24.8,30.8h-1v4.2h13.9
			v41.2c0,1.2,0,2.5-0.1,3.9c-0.2,6-0.3,12.8,2,17.8c3.1,6.7,11.4,9.7,18.3,9.7c12.4,0,17.8-6.6,20.2-14.5c7,9.1,18,14.8,30.6,14.8
			c8.3,0,15.5-2.5,21-7.1c5.6-4.7,9.1-11.5,10.1-19.6l0.1-1.1H771z M741.8,199.6c10.6,0,16,6.9,16,20.6c0,1.6,0,4-0.4,5.6
			c-0.7,1.9-3.7,2.8-9.1,2.8c-1,0-1.9,0-2.7,0c-0.6,0-1.2,0-1.7,0H722C722.8,213.4,725.9,199.6,741.8,199.6z"/>
		<path d="M409.6,196.1c-9.9,0-17.2,5-21.8,15v-13.7v-1.1l-1.1,0.1c-9.3,1.2-18.1,1.7-28.7,1.7h-1v1v1.7v0.9l0.9,0.1
			c0.5,0,1.2,0.1,1.9,0.1c4.1,0.2,11,0.6,12.7,3.8c0.8,2,0.8,5.4,0.8,7.6v43.8c0,10.3-4.4,10.6-14.1,11.4l-0.9,0.1v0.9v1.5v1h1h44.7
			h1v-1v-1.5v-0.9l-0.9-0.1l-0.4,0c-9.8-0.8-14.8-1.1-14.8-11.4v-18.6c0-8.3,0.3-17.1,4-25.8c2.3-5.5,7.6-11.9,14.6-11.9
			c1.7,0,3.7,0.6,3.7,1.3c-0.1,0.1-0.5,0.5-0.8,0.8c-1.3,1.1-3.5,3-3.5,7.1c0,5.1,4.2,9.2,9.4,9.2c5.3,0,9.4-4.5,9.4-10.1
			C425.6,200.1,417.6,196.1,409.6,196.1z"/>
		<path d="M914.3,268.9c-9.6-0.8-14-1.1-14-11.4v-34.8l0-1.2c0-6.2,0-12.1-4.2-17.5c-2.7-3.4-8.2-7.5-18.9-7.5
			c-8.9,0-15.4,2.9-21.1,9.3c-3.5,3.9-5.2,7.4-6.6,11.7c-0.5-4-1.4-8-3.4-11.6c-3.3-5.8-10.2-9.3-18.4-9.3c-8.3,0-15.2,3.1-21.1,9.6
			c-3.3,3.7-5.1,7-6.7,11.1v-19.4v-1.2l-1.1,0.2c-3.8,0.6-8,0.9-12.8,1.1c-4.5,0.3-10.1,0.6-15.3,0.6h-1v1v1.7v0.9l0.9,0.1
			c0.8,0.1,1.6,0.1,2.4,0.2c2.7,0.2,5.4,0.4,7.8,1.2c3.7,1.2,3.9,4.1,3.8,8.6c0,0.5,0,1.1,0,1.6v43.8c0,10.3-4.4,10.6-14,11.4
			l-0.9,0.1v0.9v1.5v1h1h43.1h1v-1v-1.5V269l-0.9-0.1c-9.6-0.8-14-1.1-14-11.4v-8.8c0-11.3,0.3-20.7,3.9-30
			c4.1-10.1,11.7-16.1,20.5-16.1c7.5,0,10.5,4,10.5,13.7v41.2c0,10.3-4.4,10.6-14,11.4l-0.9,0.1v0.9v1.5v1h1h43.1h1v-1v-1.5V269
			l-0.9-0.1c-9.6-0.8-14-1.1-14-11.4v-9.9c0-10,0.2-18.9,2.9-27.7c3.3-11,11.1-17.2,21.4-17.2c1.8,0,4.4,0.1,6.3,1
			c4.2,2.3,4.1,12,4.1,17.2c0,0.5,0,1,0,1.4v35.3c0,10.1-4.1,10.5-13.9,11.4L870,269l0,0.9v1.5v1h1h43.3h1v-1v-1.5V269L914.3,268.9z
			"/>
	</g>
	<g>
		<path class="st1" d="M453.5,103.8V46.5c0-21.9,16.3-39.7,41.8-39.7h59.4v136.6h-59.4C468.8,143.5,453.5,125.7,453.5,103.8z"/>
		<path class="st1" d="M610.9,143.5h73.3L646.5,25.9c-8.6-26.9-46.6-27.1-55.5-0.4l-39.6,117.9h47.5l12.1-36.1V143.5z M618.5,85
			l4.9,15.2h-10L618.5,85z"/>
		<path class="st1" d="M392.5,53v0.9h42.9v43.5h-42.9v0.5c0,1.5,1.2,2.6,2.7,2.6h52v43h-60.6c-21.2,0-38.3-17.1-38.3-38.3v-60
			c0-21.2,17.2-38.3,38.3-38.3h60.6v43.5h-52C393.6,50.3,392.5,51.5,392.5,53z"/>
		<path class="st1" d="M340.2,98.5L340.2,98.5c0,24.9-20.2,45-45,45h-60.5V99h59.3c0.9,0,1.6-0.7,1.6-1.6l0,0c0-0.9-0.7-1.6-1.6-1.6
			h-15.7c-24.5,0-44.4-19.9-44.4-44.4v0c0-24.5,19.9-44.4,44.4-44.4h59.3v43h-57.8c-1,0-1.8,0.8-1.8,1.8v0c0,1,0.8,1.8,1.8,1.8h15.3
			C320.1,53.4,340.2,73.6,340.2,98.5z"/>
	</g>
	<path class="st2" d="M257.5,51.2L257.5,51.2c0,11.9,9.6,21.5,21.5,21.5h15.8c13.8,0,25,11.2,25,25v0c0,13.8-11.2,25-25,25h-60v-2.8
		h60c12.3,0,22.3-10,22.3-22.3v0c0-12.3-10-22.3-22.3-22.3H279c-13.4,0-24.2-10.9-24.2-24.2v0c0-13.4,10.9-24.2,24.2-24.2h58.8v2.8
		H279C267.1,29.7,257.5,39.3,257.5,51.2z"/>
	<g>
		<path class="st2" d="M386.2,30.1h60.9v-2.8h-60.9c-9.8,0-17.7,7.9-17.7,17.7v59.7c0,10.1,8.2,18.3,18.3,18.3h60.3v-2.8h-60.3
			c-8.6,0-15.6-7-15.6-15.6V76.6h64.1v-2.8h-64.1V45.1C371.2,36.8,377.9,30.1,386.2,30.1z"/>
	</g>
	<path class="st2" d="M610.9,120.4h42.1l-29.9-91.7c-0.8-2.4-2.8-3.2-4.4-3.2c0,0,0,0,0,0c-1.6,0-3.6,0.8-4.4,3.2l-38.5,114.8h-2.9
		l38.8-115.7c1-3.1,3.8-5.1,7.1-5.1c3.3,0,6,2,7,5.1l31,95.3h-45.9V120.4z"/>
	<g>
		<path class="st2" d="M491.9,30.2h62.8v-2.8h-62.8c-10,0-18.1,8.1-18.1,18.1v59.7c0,9.7,7.9,17.7,17.7,17.7h42.8V73.6h-33.6V53.4
			h54v-2.8h-54.4c-1.3,0-2.4,1.1-2.4,2.4v44.1c0,1.3,1.1,2.4,2.4,2.4h10.3v-2.8h-10V76.4h30.8v43.8h-40c-8.2,0-14.9-6.7-14.9-14.9
			V45.6C476.6,37.1,483.5,30.2,491.9,30.2z"/>
	</g>
</g>
</svg>
