<?xml version="1.0" encoding="UTF-8" standalone="no"?>
<svg
   xmlns:dc="http://purl.org/dc/elements/1.1/"
   xmlns:cc="http://creativecommons.org/ns#"
   xmlns:rdf="http://www.w3.org/1999/02/22-rdf-syntax-ns#"
   xmlns:svg="http://www.w3.org/2000/svg"
   xmlns="http://www.w3.org/2000/svg"
   xmlns:sodipodi="http://sodipodi.sourceforge.net/DTD/sodipodi-0.dtd"
   xmlns:inkscape="http://www.inkscape.org/namespaces/inkscape"
   version="1.0"
   width="676.47791"
   height="166.68752"
   viewBox="0 0 2.2853984 2.2549719"
   id="body"
   sodipodi:version="0.32"
   inkscape:version="1.0.2-2 (e86c870879, 2021-01-15)"
   sodipodi:docname="Super_Nintendo_Entertainment_System.svg"
   inkscape:output_extension="org.inkscape.output.svg.inkscape"
   inkscape:export-filename="C:\Users\tjdru\OneDrive\Pictures\Logos\Games\sneslogo.png"
   inkscape:export-xdpi="141.91151"
   inkscape:export-ydpi="141.91151">
  <metadata
     id="metadata3313">
    <rdf:RDF>
      <cc:Work
         rdf:about="">
        <dc:format>image/svg+xml</dc:format>
        <dc:type
           rdf:resource="http://purl.org/dc/dcmitype/StillImage" />
      </cc:Work>
    </rdf:RDF>
  </metadata>
  <sodipodi:namedview
     inkscape:window-height="705"
     inkscape:window-width="1366"
     inkscape:pageshadow="2"
     inkscape:pageopacity="0.0"
     guidetolerance="10.0"
     gridtolerance="10.0"
     objecttolerance="10.0"
     borderopacity="1.0"
     bordercolor="#666666"
     pagecolor="#ffffff"
     id="base"
     inkscape:zoom="1"
     inkscape:cx="272.06578"
     inkscape:cy="76.589473"
     inkscape:window-x="-8"
     inkscape:window-y="-8"
     inkscape:current-layer="layer6"
     showgrid="false"
     inkscape:window-maximized="1"
     showguides="true"
     inkscape:guide-bbox="true"
     inkscape:document-rotation="0" />
  <defs
     id="defs2260" />
  <title
     id="title2161">SVG drawing</title>
  <desc
     id="desc2163">This was produced by version 4.2 of GNU libplot, a free library for exporting 2-D vector graphics.</desc>
  <g
     inkscape:groupmode="layer"
     id="layer6"
     inkscape:label="Layer 1"
     transform="translate(-0.21937104,-0.21645022)">
    <g
       id="g40838">
      <path
         sodipodi:nodetypes="ccccccccccccccccccccccccccccccccccccccccccccccccccccccccccccccccccccccccccccccccccccccccccccccccccccccccccccccccccccccccccccccccccccccccccccccccccccccccccccccccccccccccccccccccccccccc"
         inkscape:connector-curvature="0"
         d="M -0.01873864,0.40632699 H 0.0722765 c 0.05838037,0 0.07271565,0.0236962 0.06276889,0.070615 l -0.08316888,0.3923067 c -0.01081804,0.0510286 -0.04277269,0.0690459 -0.07532286,0.0690459 h -0.08630743 c -0.0288588,0 -0.0358532,-0.0144116 -0.0313849,-0.0376618 l 0.09258447,-0.48175245 c 0.0019715,-0.0102584 0.01426115,-0.0125534 0.02981557,-0.0125534 z m -1.25695046,0 h 0.097292 c 0.060142,0 0.067321,0.0490584 0.062769,0.070615 l -0.083169,0.39387594 c -0.00991,0.0469177 -0.031392,0.0674766 -0.051785,0.0674766 h -0.117692 c -0.027925,0 -0.03613,-0.0133756 -0.031384,-0.0376618 l 0.094154,-0.48175243 c 0.00214,-0.010942 0.019135,-0.0125533 0.029815,-0.0125533 z m 6.8669415,-0.006277 c 0.059236,2e-8 0.098551,0.0475578 0.087877,0.10670742 L 5.4908219,1.5502928 c -0.010645,0.058993 -0.064734,0.1082768 -0.1239681,0.108277 -0.059231,2e-7 -0.084342,-0.04911 -0.073754,-0.108277 L 5.4798374,0.50675736 c 0.01121,-0.062643 0.050123,-0.1067074 0.111415,-0.10670737 z m -0.8144349,0 h 0.092583 c 0.059236,0 0.1006352,0.0476529 0.089446,0.10670742 L 4.7611252,1.5502928 c -0.011195,0.059083 -0.067874,0.108277 -0.1271074,0.108277 H 4.5430033 Z M 5.4672769,0.21645037 c -0.0861,0 -0.1683188,0.0707571 -0.1836002,0.15849191 L 5.0592781,1.6632772 c -0.014327,0.082257 0.039863,0.1475073 0.1223993,0.1475073 h 0.3311071 c 0.083025,0 0.1633756,-0.065317 0.1788925,-0.1475073 L 5.9349063,0.37494228 C 5.9514707,0.28720418 5.8953057,0.21645037 5.8093684,0.21645037 Z m -0.8615054,0 -0.3028608,1.59433423 h 0.4582142 c 0.083188,0 0.1633754,-0.065318 0.1788924,-0.1475075 L 5.1832469,0.37494228 C 5.1998352,0.28707755 5.1438082,0.21645037 5.0577088,0.21645037 Z m -0.7987359,0 L 3.5041745,1.8107846 H 3.7364202 L 3.9231576,0.88651013 3.9969114,1.8107845 H 4.1977726 L 4.5006332,0.21645037 H 4.2683876 L 4.1130346,1.0497098 4.0094653,0.21645037 Z m -0.5099988,0 L 2.9831911,1.8107845 H 3.4241603 L 3.4665133,1.613062 H 3.2299729 L 3.3362663,1.0748172 H 3.5590964 L 3.5904812,0.9084791 H 3.367651 L 3.464942,0.41417274 h 0.22283 L 3.723034,0.21645022 Z m -0.5523679,0 -0.037661,0.19772254 H 2.8325466 L 2.5846077,1.8107845 H 2.8137142 L 3.0663603,0.41417291 h 0.113976 l 0.03824,-0.19772254 z m -0.7783359,0 -0.3028608,1.59433413 h 0.2322456 l 0.186738,-0.92427437 0.073754,0.92427437 h 0.200861 l 0.30286,-1.59433413 H 2.4276857 L 2.2723322,1.0497098 2.1687632,0.21645037 Z m -0.3059991,0 -0.3028608,1.59433413 h 0.200861 L 1.8611947,0.21645037 Z m -0.79716726,0 L 0.56030587,1.8107846 H 0.79098236 L 0.97772023,0.88651013 1.0514739,1.8107845 H 1.2523351 L 1.5551958,0.21645037 H 1.3245194 L 1.1675968,1.0497098 1.0640279,0.21645037 Z m -1.07492017,0 -0.30129145,1.59433423 h 0.20086094 l 0.13652287,-0.7218444 h 0.14279967 c 0.0333262282,0 0.0465481,0.046323 0.02824637,0.1427997 L -0.11446087,1.8107846 H 0.08640011 L 0.1993844,1.1956476 C 0.2142027,1.1149702 0.1487047,1.0773613 0.0801233,1.0622634 0.13757668,1.0396064 0.24565756,1.0022281 0.257446,0.94143313 L 0.3672914,0.37494228 C 0.38431849,0.28713079 0.3278532,0.21645037 0.24175315,0.21645037 Z m -0.53981387,0 -0.3138453,1.59433423 h 0.44224266 L -0.58209116,1.613062 H -0.81849369 L -0.713906,1.0748172 h 0.22283024 l 0.0313849,-0.1663381 h -0.22283032 l 0.0988614,-0.49430636 h 0.22283027 l 0.0368681,-0.19772252 z m -0.7171367,0 -0.3028606,1.59433423 h 0.200861 l 0.1380921,-0.7218444 h 0.2434447 c 0.083187,0 0.1597947,-0.066242 0.1773226,-0.14750718 L -0.88965918,0.37494221 C -0.87080653,0.28753506 -0.92909708,0.21645029 -1.0151974,0.2164503 Z m -0.7218446,0 -0.2665875,1.44682683 c -0.015125,0.082086 0.041269,0.1475073 0.123968,0.1475073 h 0.2997228 c 0.083024,0 0.1627891,-0.06543 0.1788916,-0.1475073 l 0.2838492,-1.44682683 h -0.188307 L -2.0412752,1.6224773 c -0.00408,0.020323 -0.023547,0.037661 -0.043939,0.037661 H -2.23429 c -0.020868,0 -0.035398,-0.017218 -0.031385,-0.037661 l 0.2759863,-1.40602693 z m -0.5774752,0 c -0.086101,-1.8e-7 -0.1676099,0.0711844 -0.1851688,0.15849191 l -0.061226,0.30443122 c -0.00757,0.0376372 0.00729,0.0650864 0.015686,0.10043056 0.019845,0.0835134 0.299003,0.47588434 0.2887379,0.53510614 l -0.0408,0.2353839 c -0.010265,0.059223 -0.050611,0.106707 -0.109847,0.1067072 -0.059233,1e-7 -0.1002823,-0.047425 -0.089446,-0.1067072 l 0.053353,-0.2918758 h -0.210277 l -0.070615,0.4048602 c -0.014342,0.082226 0.041268,0.1475074 0.1239681,0.1475074 h 0.2997225 c 0.083025,0 0.1621107,-0.065291 0.1773239,-0.1475074 0.013989,-0.075602 0.07689,-0.3781543 0.07689,-0.4048602 0,-0.015309 -0.00528,-0.025557 -0.00784,-0.029816 L -2.783746,0.76881897 c -0.017451,-0.0290527 -0.019993,-0.0474237 -0.020409,-0.0721844 -4.129e-4,-0.0246014 0.023633,-0.13575243 0.032954,-0.18987633 0.010201,-0.0592341 0.066303,-0.10670742 0.1255389,-0.10670742 0.059233,0 0.093664,0.0478132 0.08166,0.10670742 l -0.053416,0.26206077 h 0.2118456 l 0.073754,-0.39387585 c 0.016434,-0.0877632 -0.039438,-0.15849197 -0.1255386,-0.15849215 z"
         style="font-style:normal;font-variant:normal;font-weight:normal;font-stretch:normal;letter-spacing:normal;word-spacing:normal;text-anchor:start;fill:#ed1c24;fill-opacity:1;fill-rule:nonzero;stroke:none;stroke-width:0;stroke-linecap:butt;stroke-linejoin:miter;stroke-miterlimit:10.433;stroke-dasharray:none;stroke-dashoffset:0;stroke-opacity:1"
         id="path11260" />
      <path
         id="path40812"
         style="font-style:normal;font-variant:normal;font-weight:normal;font-stretch:normal;letter-spacing:normal;word-spacing:normal;text-anchor:start;fill:#ed1c24;fill-opacity:1;fill-rule:nonzero;stroke:none;stroke-width:0;stroke-linecap:butt;stroke-linejoin:miter;stroke-miterlimit:10.433;stroke-dasharray:none;stroke-dashoffset:0;stroke-opacity:1"
         d="m 0,128.06055 v 38.62695 h 662.11133 v -38.62695 z m 14.382812,4.98828 h 6.84375 l -0.46289,3.24805 h -3.712891 l -1.507812,8.11914 h 3.595703 l -0.464844,2.78515 h -3.710937 l -1.392579,8.81445 h 3.595704 l -0.578125,3.24805 H 9.1640625 Z m 32.015626,0 h 3.248046 l 1.740235,13.6875 2.552734,-13.6875 h 3.826172 l -4.986328,26.21484 H 49.53125 l -1.277344,-15.19531 -3.015625,15.19531 h -3.828125 z m 34.798828,0 h 7.65625 l -0.462891,3.24805 h -1.972656 l -4.175781,22.96679 h -3.712891 l 4.060547,-22.96679 h -2.087891 z m 33.755854,0 h 6.96094 l -0.58008,3.24805 h -3.5957 l -1.625,8.11914 h 3.5957 l -0.46289,2.78515 h -3.5957 l -1.72461,8.81445 h 3.8125 l -0.46484,3.24805 h -7.42383 z m 32.71094,0 h 7.42383 c 1.3758,0 2.24439,1.21862 1.97266,2.66797 l -1.74024,9.27929 c -0.18849,1.00546 -1.95525,1.8258 -2.90039,2.20508 1.30779,0 2.17039,0.64031 1.97266,1.74024 l -1.85547,10.32421 h -3.36523 l 1.85742,-9.51171 c 0.16262,-0.83426 0.29283,-2.32032 -0.46485,-2.32032 h -2.32031 l -2.20312,11.83203 h -3.36329 z m 33.17578,0 h 7.77149 l -0.46289,3.24805 h -1.97266 L 182,159.26367 h -3.71289 l 4.06055,-22.96679 h -2.08789 z m 38.91407,0 h 3.40429 l -1.17773,26.21484 h -3.90625 l 0.58008,-6.03125 h -2.66797 l -1.84961,6.03125 h -3.79688 z m 30.56836,0 h 3.36328 l -4.98828,26.21484 h -3.24805 z m 29.92773,0 h 3.24805 l 1.73828,13.6875 2.55273,-13.6875 h 3.71289 l -4.87304,26.21484 h -3.36329 l -1.44726,-15.19531 -2.72852,15.19531 h -3.82812 z m 38.39453,0 h 4.29102 l 0.69726,15.19531 6.66211,-15.19531 h 4.15039 l -4.43359,26.21484 h -3.24805 l 2.08789,-13.80273 -5.79883,13.80273 h -2.32031 l -0.69531,-14.15039 -2.55273,14.15039 h -3.71094 z m 42.10742,0 h 6.95117 l -0.57031,3.24805 h -3.71289 l -1.50781,8.11914 h 3.5957 l -0.46484,2.78515 h -3.71094 l -1.8125,8.81445 h 4.01563 l -0.58008,3.24805 h -7.30664 z m 33.63867,0 h 3.24805 l 1.74024,13.6875 2.55078,-13.6875 h 3.71289 l -4.87305,26.21484 h -3.24609 l -1.27735,-15.19531 -3.01562,15.19531 h -3.82813 z m 34.45118,0 h 7.77148 l -0.58008,3.24805 h -1.9707 l -4.06055,22.96679 h -3.71093 l 4.05859,-22.96679 h -2.08789 z m 84.5625,0 h 3.71875 l 1.24023,9.97656 5.13281,-9.97656 h 4.17579 L 519.08789,148.24414 517,159.26367 h -3.71094 l 2.31055,-11.83203 z m 64.66015,0 h 8.09571 l -0.60547,3.24805 h -1.97266 l -4.06055,22.96679 h -3.82812 l 4.06055,-22.96679 h -2.29493 z m 30.72461,0 H 615.75 l -0.61523,3.24805 h -3.59571 l -1.625,8.23632 h 3.71289 l -0.47461,2.66797 h -3.70117 l -1.76367,8.81641 h 3.95117 l -0.56445,3.24609 h -7.42383 z m 28.61524,0 h 4.29297 l 0.69531,15.19531 6.61133,-15.19531 h 4.17773 l -4.4082,26.21484 h -3.24805 l 2.08789,-13.80273 -5.80078,13.80273 h -2.31836 l -0.69726,-14.15039 -2.55274,14.15039 h -3.82617 z m -150.09961,0.11523 h 5.10351 c 1.37654,-5e-5 2.31808,1.09614 2.08789,2.55274 l -1.02734,6.49609 H 490 l 0.7832,-4.29297 c 0.17667,-0.96776 -0.40845,-1.74023 -1.39062,-1.74023 -0.96961,0 -1.90775,0.76656 -2.08789,1.74023 l -0.58008,3.13281 c -0.0383,0.20698 0.25008,1.00907 0.34766,1.16016 l 4.86718,7.53906 c 0.14636,0.2262 0.13446,0.36579 0.11524,0.46485 l -1.27539,6.61132 c -0.25503,1.32243 -1.5362,2.43555 -2.90039,2.43555 h -5.21485 c -1.35103,0 -2.20528,-1.10912 -1.97265,-2.43555 l 1.16015,-6.61132 h 3.36328 l -0.8125,4.75586 c -0.16558,0.96983 0.41041,1.85546 1.39258,1.85546 0.93405,0 1.911,-0.88305 2.08789,-1.85546 l 0.69531,-3.82813 -4.98632,-8.81641 c -0.1168,-0.20623 -0.34774,-1.00174 -0.23242,-1.62304 l 0.92578,-4.98828 c 0.31268,-1.68198 1.01519,-2.55266 3.01953,-2.55274 z m 64.61133,0 h 5.10351 c 1.37654,-5e-5 2.31808,1.09614 2.08789,2.55274 l -1.02539,6.49609 h -3.4707 l 0.78515,-4.29297 c 0.17667,-0.96776 -0.4104,-1.74023 -1.39257,-1.74023 -0.96961,0 -1.90775,0.76656 -2.08789,1.74023 l -0.58008,3.13281 c -0.0383,0.20698 0.25008,1.00907 0.34765,1.16016 l 4.86719,7.53906 c 0.14636,0.2262 0.13641,0.36579 0.11719,0.46485 l -1.27735,6.61132 c -0.25502,1.32243 -1.53619,2.43555 -2.90039,2.43555 h -5.21484 c -1.35104,0 -2.20528,-1.10912 -1.97266,-2.43555 l 1.16016,-6.61132 h 3.36328 l -0.81055,4.75586 c -0.16558,0.96983 0.40845,1.85546 1.39063,1.85546 0.93405,0 1.911,-0.88305 2.08789,-1.85546 l 0.69727,-3.82813 -4.98829,-8.81641 c -0.11679,-0.20623 -0.34773,-1.00174 -0.23242,-1.62304 l 0.92774,-4.98828 c 0.31268,-1.68198 1.01323,-2.55266 3.01758,-2.55274 z m -401.11914,3.01758 c -0.17889,-3e-5 -0.43158,0.0547 -0.46485,0.23242 l -1.50781,8.00391 c -0.0467,0.24763 0.17803,0.46289 0.46484,0.46289 h 1.39063 c 0.90234,0 1.20963,-0.69821 1.27734,-1.04297 l 1.27539,-6.49609 c 0.0729,-0.37108 -0.0615,-1.16001 -0.92773,-1.16016 z m 68.88476,6.02344 -2.65039,8.47656 h 1.85547 z"
         transform="matrix(0.01352814,0,0,0.01352814,-3.2136842,0.21645022)"
         sodipodi:nodetypes="ccccccccccccccccccccccccccccccccccccccccccccccccccccccccccccccccccccccccccccccccccccccccccccccccccccccccccccccccccccccccccccccccccccccccccccccccccccccccccccccccccccccccccccccccccccccccccccccccccccccccccccccccccccccccccccccccccccccccccccccccccccccccccccccccc" />
    </g>
  </g>
</svg>
