<svg version="1.2" xmlns="http://www.w3.org/2000/svg" viewBox="0 0 607 78" width="607" height="78">
	<title>Super_Famicom_Color_Logo-svg</title>
	<style>
		.s0 { fill: #000000 } 
	</style>
	<g id="Layer">
		<path id="Layer" class="s0" d="m46.1 28.3c0 6.6-3.7 12-17 12h-27.2v-7.9h27.5c2.3 0 4.2-1.9 4.2-4.2 0-2.3-1.9-4.2-4.2-4.2h-12.4c-13.2 0-17-5.3-17-12 0-6.6 3.7-12 17-12h26.3v7.8h-26.6c-2.3 0-4.2 1.9-4.2 4.2 0 2.3 1.9 4.2 4.2 4.2h12.4c13.3 0 17.1 5.4 17 12.1z"/>
		<path id="Layer" class="s0" d="m81.8 32.4v-32.4h12.6v40.4h-26.6c-13.4 0-17-5.4-17-12.1v-28.3h12.6v28.2c0 2.3 1.9 4.2 4.2 4.2h14.3z"/>
		<path id="Layer" fill-rule="evenodd" class="s0" d="m145.2 13.2c0 7.4-5.5 13.3-17.3 13.3h-15.3v13.8h-12.6v-40.3h27.9c11.9 0 17.3 5.9 17.3 13.2zm-12.6 0.1c0-3-2.4-5.4-5.4-5.4h-14.6v10.7h14.6c2.9 0 5.4-2.4 5.4-5.3z"/>
		<path id="Layer" class="s0" d="m171.2 0h19v7.9h-19.3c-5.4 0-8 3.5-8.9 8.3h28.3v7.9h-28.3c0.8 4.8 3.5 8.3 8.9 8.3h19.3v7.9h-19c-17.4 0-22.2-9.1-22.2-20.2 0-11.1 4.8-20.1 22.2-20.1z"/>
		<path id="Layer" fill-rule="evenodd" class="s0" d="m232.3 25.6l10.7 14.7h-13.4l-9.1-13.8h-12.9v13.8h-12.6v-40.3h29.9c12 0 17.3 6 17.3 13.3 0 5.5-3.2 10.3-9.9 12.3zm-2.7-12.3c0-3-2.4-5.4-5.4-5.4h-16.6v10.7h16.6c2.9 0 5.4-2.4 5.4-5.3z"/>
		<path id="Layer" class="s0" d="m290.8 0h19.6v7.8h-20c-4.9 0-8.8 3.9-8.8 8.8h28.2v7.9h-28.2v15.8h-12.6v-23.5c0-9.3 5.8-16.8 21.8-16.8z"/>
		<path id="Layer" fill-rule="evenodd" class="s0" d="m359.3 16.8v23.5h-28.5c-14.5 0-16.8-5.3-16.8-11.8 0-6.5 2.3-11.8 16.8-11.8h15.9c0-4.9-3.9-8.8-8.8-8.8h-21v-7.9h20.6c16 0 21.9 7.5 21.8 16.8zm-12.5 7.8h-16.2c-2.1 0-3.9 1.8-3.9 3.9 0 2.1 1.7 3.9 3.9 3.9h16.2z"/>
		<path id="Layer" class="s0" d="m423.4 12.4v28h-12.4v-27.8c0-2.6-2.1-4.7-4.7-4.7h-5.9v32.4h-12.4v-32.4h-10.6v32.4h-12.4v-40.3h40.9c13.6 0 17.5 5.5 17.5 12.4z"/>
		<path id="Layer" class="s0" d="m431 0h12.4v40.3h-12.4z"/>
		<path id="Layer" class="s0" d="m474.2 0h15.7v7.8h-16.2c-6.8 0-12.3 5.5-12.3 12.3 0 6.8 5.5 12.3 12.3 12.3h16.2v7.9h-15.7c-19.2 0-25.2-9.1-25.2-20.2 0-11.1 6-20.1 25.2-20.1z"/>
		<path id="Layer" fill-rule="evenodd" class="s0" d="m542.8 18.2c0 0.7 0 1.3 0 2 0 0.7 0 1.3 0 2-0.4 8.9-7.1 16.1-15.8 17.5-3 0.4-6.1 0.7-9.3 0.7-3.2 0-6.3-0.2-9.3-0.7-8.7-1.4-15.4-8.7-15.8-17.5 0-0.7 0-1.3 0-2 0-0.7 0-1.3 0-2 0.4-8.9 7.1-16.1 15.8-17.5 3-0.4 6.1-0.7 9.3-0.7 3.2 0 6.3 0.2 9.3 0.7 8.7 1.4 15.4 8.6 15.8 17.5zm-12.4 1.9c0-1.7-0.1-3.3-0.3-4.9-0.5-3.8-3.5-6.8-7.3-7.2q-2.4-0.3-5.1-0.3-2.5 0-5.1 0.3c-3.7 0.5-6.8 3.4-7.3 7.2-0.2 1.6-0.3 3.2-0.3 4.9 0 1.7 0.1 3.3 0.3 4.9 0.5 3.8 3.5 6.8 7.3 7.2 1.6 0.2 3.4 0.3 5.1 0.3q2.6 0 5.1-0.3c3.7-0.5 6.8-3.4 7.3-7.2 0.3-1.6 0.3-3.2 0.3-4.9z"/>
		<path id="Layer" class="s0" d="m606.4 12.4v28h-12.4v-27.8c0-2.6-2.1-4.7-4.7-4.7h-5.9v32.4h-12.4v-32.4h-10.6v32.4h-12.4v-40.3h40.9c13.6 0 17.5 5.5 17.5 12.4z"/>
	</g>
	<g id="Layer">
	</g>
	<g id="Layer">
		<path id="Layer" fill-rule="evenodd" class="s0" d="m34.4 77.4h-7.6l-3.7-5.3c-3.5 3.3-8.1 5.3-13.2 5.3h-10.3v-7.2h11.2c6.8 0 12.3-5.5 12.3-12.3h-22.6v-7.2h28.5v7.7c0 3.1-0.8 6-2.1 8.6l7.5 10.5z"/>
		<path id="Layer" class="s0" d="m31.7 60.5h25.7v7.2h-25.7z"/>
		<g id="Layer">
			<path id="Layer" class="s0" d="m67.8 50.7h6.3v13c0 9.5-7.7 14.1-17.1 14.1v-7.5c7 0 10.8-3.1 10.8-6.8z"/>
			<path id="Layer" class="s0" d="m93.1 70.3v7.5c-9.5 0-17.1-4.7-17.1-14.1v-13h6.2v12.8c0 3.8 3.8 6.8 10.9 6.8z"/>
			<path id="Layer" fill-rule="evenodd" class="s0" d="m89 60.2c-2.7 0-4.9-2.2-4.9-4.9 0-2.7 2.2-4.9 4.9-4.9 2.7 0 4.9 2.2 4.9 4.9 0 2.7-2.2 4.9-4.9 4.9zm1.9-4.9c0-1.1-0.8-1.9-1.9-1.9-1.1 0-1.9 0.8-1.9 1.9 0 1.1 0.8 1.9 1.9 1.9 1.1 0 1.9-0.8 1.9-1.9z"/>
		</g>
		<path id="Layer" class="s0" d="m93.7 60.5h25.7v7.2h-25.7z"/>
		<path id="Layer" fill-rule="evenodd" class="s0" d="m160.9 61.7c0 8.7-7 15.7-15.7 15.7h-15.7v-7.2h16.3c5.1 0 9.2-4.1 9.2-9.2v-3.1h-27.6v-7.2h33.5z"/>
		<path id="Layer" fill-rule="evenodd" class="s0" d="m162.9 57.2h29.8v6.8c0 4.1-3.4 7.5-7.5 7.5h-3.6c-3 0-4.3 1.5-4.3 3.3 0 1.8-1.6 3.3-4.3 3.3h-8.4v-6.6h7.5c1.5 0 2.6-1.2 2.6-2.6 0-1.5 1.2-2.6 2.6-2.6h7.2c1.1 0 2.1-0.9 2.1-2.1v-0.5h-23.7v-6.6z"/>
		<g id="Layer">
			<path id="Layer" class="s0" d="m228.1 54.4v6.2l-33.8-4.1v-6.1z"/>
			<path id="Layer" class="s0" d="m194.3 67.9l33.8 4.1v6.2l-33.8-4.1z"/>
			<path id="Layer" class="s0" d="m194.3 59.1l33.8 4.1v6.2l-33.8-4.1z"/>
		</g>
		<path id="Layer" class="s0" d="m266 77.7h-34.7v-7.2h28.5v-12.5h-28.1v-7.3h34.3z"/>
		<g id="Layer">
			<path id="Layer" class="s0" d="m269.4 50.7h20.3v7.2h-20.3z"/>
			<path id="Layer" fill-rule="evenodd" class="s0" d="m297.8 50.6h6.3v11.2c0 8.7-5.3 15.8-14.8 15.8h-19.9v-7.2h19.6c4.8 0 8.8-3.9 8.8-8.8v-10.9z"/>
		</g>
	</g>
	<g id="Layer">
	</g>
</svg>