<?xml version="1.0" encoding="UTF-8" standalone="no"?>
<!-- Created with Inkscape (http://www.inkscape.org/) -->

<svg
   version="1.1"
   width="345.02859"
   height="89.038597"
   id="svg2"
   sodipodi:docname="Virtualboy_logo.svg"
   inkscape:version="1.1.2 (b8e25be833, 2022-02-05)"
   xmlns:inkscape="http://www.inkscape.org/namespaces/inkscape"
   xmlns:sodipodi="http://sodipodi.sourceforge.net/DTD/sodipodi-0.dtd"
   xmlns="http://www.w3.org/2000/svg"
   xmlns:svg="http://www.w3.org/2000/svg">
  <sodipodi:namedview
     id="namedview39"
     pagecolor="#ffffff"
     bordercolor="#111111"
     borderopacity="1"
     inkscape:pageshadow="0"
     inkscape:pageopacity="0"
     inkscape:pagecheckerboard="1"
     showgrid="false"
     inkscape:zoom="2.7593163"
     inkscape:cx="177.03661"
     inkscape:cy="44.395055"
     inkscape:window-width="1128"
     inkscape:window-height="682"
     inkscape:window-x="-6"
     inkscape:window-y="-6"
     inkscape:window-maximized="1"
     inkscape:current-layer="svg2" />
  <defs
     id="defs6" />
  <path
     d="M 0,0.01011 18.565281,89.02825 37.035351,0.01011 H 27.038666 L 18.565281,50.04116 9.99669,0.01011 Z"
     id="path2952"
     style="fill:#fe0016;fill-opacity:1;stroke:none" />
  <path
     d="m 41.129241,0.01011 h 9.99669 v 89.01814 h -9.99669 z"
     id="path3726"
     style="fill:#fe0016;fill-opacity:1;stroke:none" />
  <path
     d="M 60.069121,5e-5 V 89.0313 h 10 v -46 l 13.90625,46 h 9.21875 l -11.125,-42.09375 c 6.18089,-3.7085 8,-8.5625 8,-8.5625 V 10.0938 C 85.975231,1.001575 78.912871,5e-5 78.912871,5e-5 Z m 10,9.0625 h 10 v 30.9375 h -10 z"
     id="path3728"
     style="fill:#fe0016;fill-opacity:1;stroke:none" />
  <path
     d="m 93.207231,0.01011 h 29.894859 v 9.04463 h -9.99669 v 79.97351 h -9.99669 V 9.05474 h -9.901479 z"
     id="path3733"
     style="fill:#fe0016;fill-opacity:1;stroke:none" />
  <path
     d="m 178.41287,5e-5 -19.3125,88.9375 v 0.0937 h 9.90625 l 2.09375,-12 h 13.96875 l 2,12 h 10 L 178.41287,0 Z m 0,38.375 4.5625,30.65625 h -9.875 z"
     id="path3735"
     style="fill:#fe0016;fill-opacity:1;stroke:none" />
  <path
     d="m 201.07627,0.01011 h 9.99669 v 79.97352 h 14.94743 v 9.04462 h -24.94412 z"
     id="path2882"
     style="fill:#fe0016;fill-opacity:1;stroke:none" />
  <path
     d="m 307.99325,0.01011 h 9.13983 l 9.33024,38.36825 8.47339,-38.36825 h 10.09189 l -13.99536,52.36362 v 36.65452 h -9.99669 V 52.37373 Z"
     id="path3660"
     style="fill:#fe0016;fill-opacity:1;stroke:none" />
  <path
     d="m 290.05385,0.01011 c -11.36341,0 -15.01598,10.08369 -15.01598,10.08369 0.0952,0.142818 0,66.93962 0,68.84375 1.50738,10.82145 15.01598,10.0907 15.01598,10.0907 v 0 c 14.98799,0 14.98402,-10.0907 14.98402,-10.0907 V 10.0938 C 301.16269,-0.489651 290.05385,0.01011 290.05385,0.01011 Z m -5.01598,10.08369 h 10 v 69.875 h -10 z"
     id="path3662"
     style="fill:#fe0016;fill-opacity:1;stroke:none" />
  <path
     d="m 127.00556,0.01011 h 10.0919 v 78.92625 h 10.09189 V 0.01011 h 9.90149 v 78.92625 c 0,0 -3.23703,10.09189 -14.56661,10.09189 -11.32958,0 -15.51867,-10.09189 -15.51867,-10.09189 z"
     id="path3667"
     style="fill:#fe0016;fill-opacity:1;stroke:none" />
  <path
     d="M 237.06912,5e-5 V 89.0313 h 20.09375 c 9.32664,-2.42777 9.90625,-9.0625 9.90625,-9.0625 0,0 -0.0147,-23.7805 -0.0147,-29.92764 -0.7003,-3.8802 -3.89155,-4.00986 -3.89155,-4.00986 0,0 -0.0119,-1.08369 0,-1.9375 3.52628,-0.26929 3.90625,-4.09375 3.90625,-4.09375 0,0 -0.0147,-23.756642 0,-29.90625 C 265.54515,2.831 257.16287,5e-5 257.16287,5e-5 Z m 10.03125,10.15625 h 10.0625 v 29.84375 h -10.0625 z m -0.0312,38.875 h 10.09375 v 30.9375 h -10.09375 z"
     id="path3669"
     style="fill:#fe0016;fill-opacity:1;stroke:none" />
</svg>
