<?xml version="1.0" encoding="utf-8"?>
<!-- Generator: Adobe Illustrator 23.1.0, SVG Export Plug-In . SVG Version: 6.00 Build 0)  -->
<svg version="1.1"
	 id="svg10" inkscape:version="0.92.3 (2405546, 2018-03-11)" sodipodi:docname="7bbd4d02341a21d88b3d76f92c3e7a64.svg" xmlns:cc="http://creativecommons.org/ns#" xmlns:dc="http://purl.org/dc/elements/1.1/" xmlns:inkscape="http://www.inkscape.org/namespaces/inkscape" xmlns:rdf="http://www.w3.org/1999/02/22-rdf-syntax-ns#" xmlns:sodipodi="http://sodipodi.sourceforge.net/DTD/sodipodi-0.dtd" xmlns:svg="http://www.w3.org/2000/svg"
	 xmlns="http://www.w3.org/2000/svg" xmlns:xlink="http://www.w3.org/1999/xlink" x="0px" y="0px" viewBox="0 0 1785.9 1099.6"
	 style="enable-background:new 0 0 1785.9 1099.6;" xml:space="preserve">
<style type="text/css">
	.st0{fill:#177D3E;}
	.st1{fill:url(#path3033_2_);}
	.st2{fill:#00A54D;}
	.st3{fill:url(#path3990_2_);}
	.st4{fill:#02A74D;}
	.st5{fill:url(#path4000_2_);}
	.st6{fill:url(#path4031_2_);}
	.st7{fill:url(#path4039_2_);}
	.st8{fill:#6B6B6B;}
</style>
<g>
	<polygon class="st0" points="926.4,938.6 1030.4,797.4 991.9,797.4 906.5,912.9 822.6,797.4 784.1,797.4 888.1,938.6 774.2,1094 
		812.6,1094 906.5,965.7 1001.9,1094 1040.3,1094 	"/>
	<path class="st0" d="M482.4,950c-5.7-5.7-12.8-10-19.9-12.9c21.3-11.4,35.6-34.2,35.6-59.9c0-18.6-7.1-79.8-95.3-79.8H283.2v128.3
		h-39.8c-5.7,7.1-17,22.8-21.3,29.9h61.2V1094h119.5c65.4,0,105.3-32.8,105.3-87C508,984.2,499.6,964.2,482.4,950z M315.9,828.8
		h86.8c24.2,0,62.6,5.7,62.6,47.1c0,31.3-22.8,49.9-62.6,49.9h-86.8V828.8z M402.8,1062.6h-86.8V954.2h86.8
		c32.8,0,72.6,8.6,72.6,51.3C475.4,1055.5,429.8,1062.6,402.8,1062.6z"/>
	<path class="st0" d="M663.2,790.2c-82.6,0-140.9,64.2-140.9,155.5s58.4,154,140.9,154s140.9-64.2,140.9-154
		C804.1,854.4,747.2,790.2,663.2,790.2z M663.2,1068.4c-62.6,0-106.8-51.3-106.8-122.6c0-72.7,44.1-122.6,106.8-122.6
		c62.6,0,106.8,51.3,106.8,122.6C771.4,1018.4,727.2,1068.4,663.2,1068.4z"/>
	<polygon class="st0" points="256.2,797.4 217.7,797.4 133.8,912.9 49.8,797.4 10,797.4 113.8,938.6 0,1094 39.8,1094 133.8,965.7 
		227.7,1094 266.1,1094 153.7,938.6 	"/>
</g>
<g id="g3055_1_" transform="translate(-1.2833333,0.93333333)">
	<g id="g3923_1_" transform="matrix(-1,0,0,1,61.715049,-34.927083)">
	</g>
	<g id="g4049_1_">
		<g id="g4160_1_" transform="translate(-2.125,35.625)">
			
				<radialGradient id="path3033_2_" cx="2423.8916" cy="294" r="299.2456" gradientTransform="matrix(-5.123986e-02 8.0198 -8.7538 5.211698e-02 3596.4058 -19210.3633)" gradientUnits="userSpaceOnUse">
				<stop  offset="0" style="stop-color:#FFFFFF"/>
				<stop  offset="1" style="stop-color:#000000"/>
			</radialGradient>
			<ellipse id="path3033_1_" class="st1" cx="899.1" cy="309.8" rx="350.5" ry="346.4"/>
			<g id="g4126_1_" transform="matrix(0.98015316,0,0,0.99821202,0.42031523,0.17830061)">
				<g id="g4010_1_" transform="matrix(1.0075011,0,0,1.0008426,-0.23709798,0.02715301)">
					<g id="g3951_1_">
						<g id="g3917_1_" transform="translate(1.334375,-34.927083)">
							<path id="path3900_1_" inkscape:connector-curvature="0" sodipodi:nodetypes="ccccc" class="st2" d="M817.1,193.9
								c-37.5,48-200.1,237.7-185.5,367c10.4,12.5,20.9,25,33.4,35.5c-2.1-98.1,114.7-204.3,204.3-285.7L817.1,193.9z"/>
						</g>
						<g id="g3988_1_" transform="translate(1.334375,-34.927083)">
							
								<linearGradient id="path3990_2_" gradientUnits="userSpaceOnUse" x1="755.7582" y1="235.9588" x2="673.2748" y2="332.7267" gradientTransform="matrix(0.9825 0 0 -0.999 36.692 677.9126)">
								<stop  offset="0" style="stop-color:#97CA43"/>
								<stop  offset="1" style="stop-color:#97CA43;stop-opacity:0"/>
							</linearGradient>
							<path id="path3990_1_" inkscape:connector-curvature="0" sodipodi:nodetypes="ccccc" class="st3" d="M817.1,193.9
								c-37.5,48-200.1,237.7-185.5,367c10.4,12.5,20.9,25,33.4,35.5c-2.1-98.1,114.7-204.3,204.3-285.7L817.1,193.9z"/>
						</g>
						<g id="g3888_1_" transform="translate(1.196189,-34.89572)">
							<g id="g3876_1_">
								<path id="path3089_1_" inkscape:connector-curvature="0" sodipodi:nodetypes="cccccccc" class="st4" d="M722.6,50.8
									c-20.9,12.5-39.7,27.1-56.3,41.7c56.3,10.4,110.5,60.4,141.8,100.1c27.1,41.7,41.7,79.2,60.4,118.9
									c12.5-10.4,25-20.9,39.7-33.4V107C864.5,82,797.7,48.6,722.6,50.8L722.6,50.8z"/>
								
									<linearGradient id="path4000_2_" gradientUnits="userSpaceOnUse" x1="753.0829" y1="468.2617" x2="828.6534" y2="635.9915" gradientTransform="matrix(0.9825 0 0 -0.999 36.2795 677.8813)">
									<stop  offset="0" style="stop-color:#97CA43"/>
									<stop  offset="1" style="stop-color:#97CA43;stop-opacity:0"/>
								</linearGradient>
								<path id="path4000_1_" inkscape:connector-curvature="0" sodipodi:nodetypes="cccccccc" class="st5" d="M722.6,50.8
									c-20.9,12.5-39.7,27.1-56.3,41.7c56.3,10.4,110.5,60.4,141.8,100.1c27.1,41.7,41.7,79.2,60.4,118.9
									c12.5-10.4,25-20.9,39.7-33.4V107C864.5,82,797.7,48.6,722.6,50.8L722.6,50.8z"/>
							</g>
						</g>
					</g>
				</g>
				<g id="g4021_1_" transform="matrix(-1.0041673,0,0,1.0016853,63.487785,0.05361018)">
					<g id="g4023_1_">
						<g id="g4025_1_" transform="translate(1.334375,-34.927083)">
							<path id="path4027_1_" inkscape:connector-curvature="0" sodipodi:nodetypes="ccccc" class="st2" d="M-941.3,193.9
								c-37.5,48-200.2,237.7-185.6,367c10.4,12.5,20.9,25,33.4,35.5c-2.1-98.1,114.7-204.3,204.3-285.7L-941.3,193.9z"/>
						</g>
						<g id="g4029_1_" transform="translate(1.334375,-34.927083)">
							
								<linearGradient id="path4031_2_" gradientUnits="userSpaceOnUse" x1="2124.1855" y1="282.3876" x2="2016.6199" y2="393.4099" gradientTransform="matrix(-0.9728 0 0 -1.0015 1049.2377 678.8812)">
								<stop  offset="0" style="stop-color:#97CA43"/>
								<stop  offset="1" style="stop-color:#97CA43;stop-opacity:0"/>
							</linearGradient>
							<path id="path4031_1_" inkscape:connector-curvature="0" sodipodi:nodetypes="ccccc" class="st6" d="M-941.3,193.9
								c-37.5,48-200.2,237.7-185.6,367c10.4,12.5,20.9,25,33.4,35.5c-2.1-98.1,114.7-204.3,204.3-285.7L-941.3,193.9z"/>
						</g>
						<g id="g4033_1_" transform="translate(1.196189,-34.89572)">
							<g id="g4035_1_">
								<path id="path4037_1_" inkscape:connector-curvature="0" sodipodi:nodetypes="cccccccc" class="st4" d="M-1035.7,50.7
									c-20.9,12.5-39.7,27.1-56.3,41.7c56.3,10.4,110.5,60.4,141.8,100.1c27.1,41.7,41.7,79.2,60.4,118.9
									c12.5-10.4,25-20.9,39.7-33.4V106.9C-891.8,81.9-960.7,48.5-1035.7,50.7L-1035.7,50.7z"/>
								
									<linearGradient id="path4039_2_" gradientUnits="userSpaceOnUse" x1="2057.5098" y1="524.0206" x2="2122.0654" y2="629.1882" gradientTransform="matrix(-0.9728 0 0 -1.0015 1049.3746 678.8498)">
									<stop  offset="0" style="stop-color:#97CA43"/>
									<stop  offset="1" style="stop-color:#97CA43;stop-opacity:0"/>
								</linearGradient>
								<path id="path4039_1_" inkscape:connector-curvature="0" sodipodi:nodetypes="cccccccc" class="st7" d="M-1035.7,50.7
									c-20.9,12.5-39.7,27.1-56.3,41.7c56.3,10.4,110.5,60.4,141.8,100.1c27.1,41.7,41.7,79.2,60.4,118.9
									c12.5-10.4,25-20.9,39.7-33.4V106.9C-891.8,81.9-960.7,48.5-1035.7,50.7L-1035.7,50.7z"/>
							</g>
						</g>
					</g>
				</g>
			</g>
		</g>
	</g>
</g>
<g>
	<path class="st8" d="M1266.1,934.4c34.6-23.3,38.1-49.4,38.1-66.1c0-18.1-8-78-97.3-78c-89.2,0-94,87.8-94,87.8h28.5
		c0,0,6.7-61.2,66-61.2c59.3,0,67.6,34.5,67.6,52.6s1,52.6-87.5,52.6v27.3c94.7,0,95,42.5,95,60.2s-13,64.2-79.4,64.2
		c-79.4,0-73.1-87.2-73.1-87.2h-26.9c0,0-11.6,113.1,100,113.1c101.1,0,107.4-66,107.4-92.1C1310.4,982,1298.7,950.4,1266.1,934.4z"
		/>
	<path class="st8" d="M1438,893.4c-34,0-58.5,19.2-74.3,38c4.7-98.3,59.2-114.6,81.2-114.6c58.7,0,65.4,61.2,65.4,61.2h28.5
		c0,0-6.4-87.8-91.4-87.8c-85,0-113.4,76.6-113.4,170.2s40.5,139.2,104.4,139.2c63.8,0,104.4-50.2,104.4-98.4
		C1542.8,953,1514.9,893.4,1438,893.4z M1441.2,1073.8c-27.2,0-59.4-10.9-72.2-68.7c-8.7-39.5,19.4-78.3,62.3-84.7
		c3.4-0.5,6.7-0.7,10-0.7c42.6,0,73.5,34.5,73.5,79.7C1514.7,1044.5,1475.9,1073.8,1441.2,1073.8z"/>
	<path class="st8" d="M1772.4,857.1c-10.9-33.2-40.2-58.6-76.9-65.2c-6.1-1.1-12.5-1.7-18.9-1.7c-6.4,0-12.7,0.5-18.9,1.7
		c-36.7,6.5-65.9,32-76.9,65.2c-8.6,26-13.5,56-13.5,87.9c0,31.9,4.9,61.8,13.5,87.9c10.9,33.2,40.2,58.6,76.9,65.2
		c6.1,1.1,12.5,1.7,18.9,1.7c6.4,0,12.7-0.5,18.9-1.7c36.7-6.5,65.9-32,76.9-65.2c8.6-26,13.5-56,13.5-87.9
		C1785.9,913.2,1781,883.2,1772.4,857.1z M1745.7,1023.2c-6.1,19.6-20.9,36.1-40.8,44.5c-9,3.8-18.5,5.8-28.5,5.8s-19.5-2-28.5-5.8
		c-20-8.4-34.7-25-40.8-44.5c-7.2-22.8-11.3-49.5-11.3-78s4.1-55.1,11.3-78c6.1-19.6,20.9-36.1,40.8-44.5c9-3.8,18.5-5.8,28.5-5.8
		s19.5,2,28.5,5.8c20,8.4,34.7,25,40.8,44.5c7.2,22.8,11.3,49.5,11.3,78S1752.8,1000.4,1745.7,1023.2z"/>
</g>
</svg>
