<?xml version="1.0" encoding="UTF-8"?>
<!-- Generator: Adobe Illustrator 15.0.2, SVG Export Plug-In  -->
<svg width="1e3" height="196.02" enable-background="new 6.9335938 -0.1396484 175 36" version="1.1" viewBox="6.9336 -.13965 1e3 196.02" xml:space="preserve" xmlns="http://www.w3.org/2000/svg" xmlns:cc="http://creativecommons.org/ns#" xmlns:dc="http://purl.org/dc/elements/1.1/" xmlns:rdf="http://www.w3.org/1999/02/22-rdf-syntax-ns#" xmlns:xlink="http://www.w3.org/1999/xlink">
<defs><linearGradient id="linearGradient4002"><stop stop-color="#97ca43" offset="0"/><stop stop-color="#97ca43" stop-opacity="0" offset="1"/></linearGradient><linearGradient id="linearGradient3037"><stop stop-color="#fff" offset="0"/><stop stop-color="#fff" stop-opacity="0" offset="1"/></linearGradient>
<radialGradient id="radialGradient4187" cx="24.529" cy="11.821" r="14.35" gradientTransform="matrix(0 1.4985 -1.2792 0 38.156 -20.965)" gradientUnits="userSpaceOnUse" xlink:href="#linearGradient3037"/><linearGradient id="linearGradient4193" x1="17.161" x2="13.206" y1="21.54" y2="16.9" gradientUnits="userSpaceOnUse" xlink:href="#linearGradient4002"/><linearGradient id="linearGradient4195" x1="19.663" x2="23.287" y1="13.09" y2="5.0464" gradientUnits="userSpaceOnUse" xlink:href="#linearGradient4002"/><linearGradient id="linearGradient4199" x1="17.551" x2="20.647" y1="12.031" y2="6.9877" gradientUnits="userSpaceOnUse" xlink:href="#linearGradient4002"/></defs>








<g transform="matrix(5.8763 0 0 5.8763 -59.305 -11.294)"><g fill="#6b6b6b" stroke-width=".028959"><polygon points="164.21 7.9121 161.9 7.9121 161.9 24.93 149.36 7.8994 147.31 7.8955 147.31 28.615 149.61 28.615 149.61 11.974 161.9 28.629 164.21 28.631"/><path d="m135.32 7.4312c-5.8262 0-9.8984 4.4561-9.8984 10.835 0 6.3892 4.0723 10.844 9.8984 10.844 5.8203 0 9.8789-4.4551 9.8789-10.844 0-6.3789-4.0586-10.835-9.8789-10.835m0 19.484c-4.4375 0-7.5488-3.5566-7.5488-8.6489 0-5.0879 3.1113-8.645 7.5488-8.645 4.4316 0 7.5234 3.5571 7.5234 8.645 1e-4 5.0923-3.0917 8.6489-7.5234 8.6489"/><polygon points="166.8 28.633 181.45 28.633 181.45 26.604 169.12 26.604 169.12 18.938 180.53 18.938 180.53 16.909 169.12 16.909 169.12 9.9253 181.3 9.9253 181.3 7.8984 166.8 7.8984"/></g><g fill="#177d3e" stroke-width=".028959"><polygon points="120.96 7.9116 113.69 17.786 121.66 28.65 118.93 28.65 112.31 19.658 105.69 28.65 102.96 28.65 110.93 17.786 103.65 7.9116 106.38 7.9116 112.31 15.966 118.23 7.9116"/><path d="m82.467 18.57c-0.43262-0.36865-0.90234-0.65381-1.3584-0.86475 1.5049-0.8169 2.4922-2.3608 2.4922-4.1519 0-1.3271-0.48926-5.6411-6.7412-5.6411h-8.4209v8.9399h-2.8057c-0.36523 0.47412-1.1904 1.6128-1.5059 2.0811h4.3115v9.7148l8.4209 9.76e-4c4.5615 0 7.3965-2.3174 7.3965-6.0537 0-1.6328-0.61719-3.021-1.7891-4.0254m-11.7-8.4946h6.0928c1.6504 0 4.4111 0.41064 4.4111 3.2959 0 2.1812-1.6094 3.481-4.4111 3.481h-6.0928zm6.0928 16.411h-6.0928v-7.5498h6.0928c2.3105 0 5.0742 0.63818 5.0742 3.6143-1e-5 3.4219-3.1777 3.9355-5.0742 3.9355"/><path d="m95.209 7.4326c-5.8242 0-9.8955 4.4561-9.8955 10.835 0 6.3887 4.0713 10.842 9.8955 10.842 5.8203 0 9.8789-4.4531 9.8789-10.842 0-6.3789-4.0586-10.835-9.8789-10.835m0 19.483c-4.4375 0-7.5459-3.5566-7.5459-8.6484 0-5.0879 3.1084-8.6436 7.5459-8.6436 4.4307 0 7.5234 3.5557 7.5234 8.6436 0 5.0918-3.0927 8.6484-7.5234 8.6484"/><polygon points="51.34 28.648 57.957 19.658 64.578 28.648 67.306 28.648 59.334 17.785 66.608 7.9121 63.883 7.9121 57.953 15.968 52.028 7.9121 49.311 7.9121 56.58 17.785 48.609 28.648"/></g><g transform="translate(-1.2833 .93333)" stroke-width=".17018"><g stroke-width=".17018"><g transform="translate(-2.125,35.625)" stroke-width=".17018"><ellipse transform="matrix(1.1756 0 0 1.1301 4.1196 -37.636)" cx="23.333" cy="17.392" rx="14.35" ry="14.758" fill="#666"/><g fill="url(#radialGradient4187)"><ellipse transform="matrix(1.1756 0 0 1.1301 4.1196 -37.636)" cx="23.333" cy="17.392" rx="14.35" ry="14.758"/><ellipse transform="matrix(1.1756 0 0 1.1301 4.1196 -37.636)" cx="23.333" cy="17.392" rx="14.35" ry="14.758"/><ellipse transform="matrix(1.1756 0 0 1.1301 4.1196 -37.636)" cx="23.333" cy="17.392" rx="14.35" ry="14.758"/></g><g transform="translate(3.7995e-7 .051777)" stroke-width=".17018"><g transform="matrix(1.0075 0 0 1.0008 -.2371 .027153)"><g stroke-width=".17018"><g transform="translate(1.3344 -34.927)"><path transform="translate(8.2169 -1.073)" d="m17.75 10.656c-1.8477 2.256-9.5927 11.425-8.9062 17.625 0.47832 0.61002 1.0047 1.1803 1.5625 1.7188-0.08129-4.7457 5.4515-9.8246 9.7694-13.658z" fill="#00a54d"/></g><g transform="translate(1.3344 -34.927)" fill="#97ca43"><path transform="translate(8.2169 -1.073)" d="m17.75 10.656c-1.8477 2.256-9.5927 11.425-8.9062 17.625 0.47832 0.61002 1.0047 1.1803 1.5625 1.7188-0.08129-4.7457 5.4515-9.8246 9.7694-13.658z" fill="url(#linearGradient4193)"/></g><g transform="translate(1.1962 -34.896)"><g stroke-width=".17018"><path transform="translate(8.2169 -1.073)" d="m13.344 3.75c-0.96566 0.58492-1.8629 1.2723-2.6875 2.0312 2.6563 0.50798 5.3208 2.8624 6.7812 4.8125 1.2724 2.0014 1.9634 3.8367 2.8615 5.7312 0.60813-0.51835 1.2265-1.0464 1.8963-1.5867l-0.0039-8.2266c-1.979-1.2378-5.2498-2.867-8.8164-2.7617-0.0076 0.00461-0.02361-0.00463-0.03125 0z" fill="#02a74d"/><path transform="translate(8.2169 -1.073)" d="m13.344 3.75c-0.96566 0.58492-1.8629 1.2723-2.6875 2.0312 2.6563 0.50798 5.3208 2.8624 6.7812 4.8125 1.2724 2.0014 1.9634 3.8367 2.8615 5.7312 0.60813-0.51835 1.2265-1.0464 1.8963-1.5867l-0.0039-8.2266c-1.979-1.2378-5.2498-2.867-8.8164-2.7617-0.0076 0.00461-0.02361-0.00463-0.03125 0z" fill="url(#linearGradient4195)"/></g></g></g></g><g transform="matrix(-1.0042 0 0 1.0017 63.252 .054306)"><g stroke-width=".17018"><g transform="translate(1.3344 -34.927)"><path transform="translate(8.2169 -1.073)" d="m17.75 10.656c-1.8477 2.256-9.5927 11.425-8.9062 17.625 0.47832 0.61002 1.0047 1.1803 1.5625 1.7188-0.08129-4.7457 5.4515-9.8246 9.7694-13.658z" fill="#00a54d"/></g><g transform="translate(1.3344 -34.927)" fill="#97ca43"><path transform="translate(8.2169 -1.073)" d="m17.75 10.656c-1.8477 2.256-9.5927 11.425-8.9062 17.625 0.47832 0.61002 1.0047 1.1803 1.5625 1.7188-0.08129-4.7457 5.4515-9.8246 9.7694-13.658z" fill="url(#linearGradient4193)"/></g><g transform="translate(1.1962 -34.896)"><g stroke-width=".17018"><path transform="translate(8.2169 -1.073)" d="m13.344 3.75c-0.96566 0.58492-1.8629 1.2723-2.6875 2.0312 2.6563 0.50798 5.3208 2.8624 6.7812 4.8125 1.2724 2.0014 1.9634 3.8367 2.8615 5.7312 0.60813-0.51835 1.2265-1.0464 1.8963-1.5867l-0.0039-8.2266c-1.979-1.2378-5.2498-2.867-8.8164-2.7617-0.0076 0.00461-0.02361-0.00463-0.03125 0z" fill="#02a74d"/><path transform="translate(8.2169 -1.073)" d="m13.344 3.75c-0.96566 0.58492-1.8629 1.2723-2.6875 2.0312 2.6563 0.50798 5.3208 2.8624 6.7812 4.8125 1.2724 2.0014 1.9634 3.8367 2.8615 5.7312 0.60813-0.51835 1.2265-1.0464 1.8963-1.5867l-0.0039-8.2266c-1.979-1.2378-5.2498-2.867-8.8164-2.7617-0.0076 0.00461-0.02361-0.00463-0.03125 0z" fill="url(#linearGradient4199)"/></g></g></g></g></g></g></g></g></g></svg>
